<?xml version="1.0" encoding="UTF-8" standalone="no"?>
<!-- Created with Inkscape (http://www.inkscape.org/) -->

<svg
   width="210mm"
   height="297mm"
   viewBox="0 0 210 297"
   version="1.1"
   id="svg5"
   inkscape:version="1.1.2 (0a00cf5339, 2022-02-04)"
   sodipodi:docname="drawing.svg"
   xmlns:inkscape="http://www.inkscape.org/namespaces/inkscape"
   xmlns:sodipodi="http://sodipodi.sourceforge.net/DTD/sodipodi-0.dtd"
   xmlns="http://www.w3.org/2000/svg"
   xmlns:svg="http://www.w3.org/2000/svg">
  <sodipodi:namedview
     id="namedview7"
     pagecolor="#ffffff"
     bordercolor="#666666"
     borderopacity="1.0"
     inkscape:pageshadow="2"
     inkscape:pageopacity="0.0"
     inkscape:pagecheckerboard="0"
     inkscape:document-units="mm"
     showgrid="false"
     inkscape:zoom="0.75187991"
     inkscape:cx="396.33989"
     inkscape:cy="347.7949"
     inkscape:window-width="1920"
     inkscape:window-height="1016"
     inkscape:window-x="0"
     inkscape:window-y="27"
     inkscape:window-maximized="1"
     inkscape:current-layer="layer1" />
  <defs
     id="defs2" />
  <g
     inkscape:label="Layer 1"
     inkscape:groupmode="layer"
     id="layer1">
    <path
       style="fill:#000000;stroke-width:0.0846667"
       d="m 164.63743,222.05126 c -0.0288,-0.0466 -0.012,-0.0847 0.0373,-0.0847 0.0493,0 0.0897,0.0381 0.0897,0.0847 0,0.0466 -0.0168,0.0847 -0.0373,0.0847 -0.0205,0 -0.0609,-0.0381 -0.0897,-0.0847 z m -0.27569,-0.4445 c 0.0191,-0.0582 0.13636,-0.11787 0.26054,-0.13257 0.17583,-0.0208 0.21453,0.003 0.17491,0.10583 -0.0609,0.15862 -0.48736,0.18482 -0.43545,0.0267 z m -46.63558,-65.16402 c -0.0188,-0.0188 -0.79732,-0.0309 -1.73005,-0.0269 -0.93272,0.004 -1.67769,-0.0222 -1.6555,-0.0581 0.0222,-0.0359 -0.10072,-0.0706 -0.27314,-0.0771 -0.17243,-0.007 -0.32462,-0.0452 -0.33822,-0.0859 -0.0355,-0.10637 -0.44189,-0.0133 -0.44344,0.10159 -8.5e-4,0.0582 -0.0296,0.0513 -0.0733,-0.0176 -0.0505,-0.0796 -0.32199,-0.12048 -0.90887,-0.13672 -1.02165,-0.0283 -1.4719,-0.10998 -1.4719,-0.26714 0,-0.0647 -0.0618,-0.11757 -0.13736,-0.11757 -0.11348,0 -0.11875,0.0224 -0.0303,0.12904 0.15564,0.18754 0.0886,0.20679 -0.36166,0.10376 -0.23225,-0.0531 -0.40204,-0.13961 -0.40204,-0.20474 0,-0.062 -0.0381,-0.11273 -0.0847,-0.11273 -0.0466,0 -0.0847,0.0381 -0.0847,0.0847 0,0.13352 -0.25396,0.0986 -0.30805,-0.0423 -0.0268,-0.0699 -0.10405,-0.127 -0.17167,-0.127 -0.0676,0 -0.0994,0.0381 -0.0706,0.0847 0.0288,0.0466 -0.0284,0.0847 -0.127,0.0847 -0.0986,0 -0.1574,-0.0355 -0.13062,-0.0788 0.0268,-0.0434 0.01,-0.10275 -0.0373,-0.132 -0.0473,-0.0293 -0.0861,-0.0128 -0.0861,0.0365 0,0.13891 -0.33782,0.10572 -0.39321,-0.0386 -0.0385,-0.10026 -0.14834,-0.11912 -0.50276,-0.0863 -0.58891,0.0545 -0.73988,-0.004 -0.67505,-0.26251 0.0282,-0.11239 0.0124,-0.20019 -0.036,-0.20019 -0.0475,0 -0.0863,0.0762 -0.0863,0.16933 0,0.20316 -0.1302,0.22413 -0.20361,0.0328 -0.0421,-0.10966 -0.0768,-0.11625 -0.17662,-0.0334 -0.0923,0.0766 -0.19066,0.08 -0.38239,0.0131 -0.14199,-0.0495 -0.31423,-0.0685 -0.38277,-0.0422 -0.0854,0.0328 -0.12461,-0.008 -0.12461,-0.13057 0,-0.13385 -0.0529,-0.1784 -0.21167,-0.1784 -0.11642,0 -0.21167,0.0381 -0.21167,0.0847 0,0.0466 -0.0422,0.0847 -0.0937,0.0847 -0.0515,0 -0.0718,-0.0571 -0.045,-0.127 0.0397,-0.10345 -0.038,-0.127 -0.41926,-0.127 -0.31036,0 -0.44919,-0.0305 -0.41212,-0.0905 0.0307,-0.0497 0.11118,-0.0692 0.17873,-0.0433 0.0706,0.0271 0.10016,0.0104 0.0695,-0.0392 -0.0306,-0.0496 -0.17647,-0.0632 -0.34251,-0.032 -0.3772,0.0708 -0.6679,-0.007 -0.88107,-0.23588 -0.13234,-0.14204 -0.19527,-0.16165 -0.27213,-0.0848 -0.0769,0.0769 -0.13434,0.0689 -0.24859,-0.0345 -0.0817,-0.074 -0.25561,-0.13474 -0.38638,-0.13504 -0.54579,-0.001 -1.17327,-0.30533 -0.68228,-0.33065 0.13624,-0.007 0.14956,-0.0206 0.0468,-0.0477 -0.079,-0.0208 -0.2124,-0.002 -0.29633,0.0415 -0.0839,0.0437 -0.22881,0.0488 -0.32194,0.0113 -0.16068,-0.0646 -0.1596,-0.0684 0.0212,-0.074 0.10477,-0.003 0.1905,-0.0397 0.1905,-0.081 0,-0.0993 -0.71812,-0.20428 -0.93245,-0.13625 -0.0961,0.0305 -0.16822,0.0147 -0.16822,-0.037 0,-0.0497 0.0381,-0.0904 0.0847,-0.0904 0.0466,0 0.0847,-0.0422 0.0847,-0.0937 0,-0.0522 -0.0617,-0.07 -0.13924,-0.0403 -0.0783,0.0301 -0.208,-0.009 -0.29633,-0.0887 -0.14778,-0.13373 -0.15725,-0.13259 -0.15979,0.0191 -0.003,0.1498 -0.0105,0.15102 -0.1122,0.0172 -0.0736,-0.0969 -0.17421,-0.12719 -0.30688,-0.0925 -0.1474,0.0385 -0.18031,0.024 -0.13001,-0.0574 0.0444,-0.0719 0.0287,-0.0961 -0.0462,-0.0711 -0.13414,0.0447 -0.42856,-0.18433 -0.36636,-0.28499 0.0236,-0.0383 -0.0259,-0.0754 -0.11017,-0.0824 -0.294122,-0.0248 -0.441061,-0.0726 -0.957494,-0.31183 -0.162983,-0.0755 -0.357132,-0.14213 -0.431444,-0.14808 -0.07431,-0.006 -0.260748,-0.10203 -0.414299,-0.21351 -0.196689,-0.14279 -0.290195,-0.17141 -0.316442,-0.0968 -0.04412,0.12532 -0.361814,0.1439 -0.361814,0.0212 0,-0.0466 0.06477,-0.0847 0.143933,-0.0847 0.104089,0 0.118322,-0.0256 0.05143,-0.0925 -0.06619,-0.0662 -0.140817,-0.0667 -0.26228,-0.002 -0.141182,0.0756 -0.192507,0.0562 -0.304783,-0.1152 -0.08102,-0.12365 -0.252586,-0.22811 -0.428972,-0.26121 -0.16168,-0.0303 -0.338083,-0.1083 -0.392007,-0.17328 -0.05393,-0.065 -0.179468,-0.11815 -0.278985,-0.11815 -0.09952,0 -0.232012,-0.0818 -0.294454,-0.18177 -0.09093,-0.14561 -0.127965,-0.15838 -0.186173,-0.0642 -0.05786,0.0936 -0.09406,0.0961 -0.177783,0.0124 -0.0798,-0.0798 -0.08065,-0.10512 -0.0036,-0.10512 0.05588,0 0.1016,-0.0381 0.1016,-0.0847 0,-0.0466 -0.07395,-0.0847 -0.164338,-0.0847 -0.09038,0 -0.190399,-0.0422 -0.22225,-0.0937 -0.04037,-0.0653 -0.07996,-0.0589 -0.1307,0.0212 -0.05579,0.088 -0.07309,0.0781 -0.07408,-0.0423 -8.47e-4,-0.0979 -0.04497,-0.14046 -0.117061,-0.1128 -0.06367,0.0244 -0.229903,-0.0572 -0.369409,-0.18144 -0.338895,-0.30178 -0.615492,-0.46067 -0.615492,-0.35359 0,0.15219 -0.156363,0.0903 -0.211608,-0.0838 -0.02952,-0.093 -0.146389,-0.19241 -0.259706,-0.22084 -0.11331,-0.0284 -0.20602,-0.0898 -0.20602,-0.13626 0,-0.0465 -0.05715,-0.0626 -0.127,-0.0358 -0.06985,0.0268 -0.127584,0.0214 -0.128295,-0.0121 -8.47e-4,-0.0335 -0.03591,-0.11554 -0.07822,-0.1824 -0.06375,-0.10073 -0.09977,-0.10259 -0.210372,-0.0108 -0.114443,0.095 -0.133451,0.0849 -0.133451,-0.071 0,-0.11405 -0.07581,-0.21061 -0.203446,-0.25914 -0.111887,-0.0425 -0.228439,-0.1178 -0.258995,-0.16724 -0.03056,-0.0494 -0.129506,-0.0899 -0.219888,-0.0899 -0.09039,0 -0.164338,-0.0422 -0.164338,-0.0937 0,-0.0515 -0.05561,-0.0724 -0.123571,-0.0463 -0.07159,0.0275 -0.222834,-0.0577 -0.359562,-0.20261 -0.129786,-0.13751 -0.283735,-0.25002 -0.342096,-0.25002 -0.05835,0 -0.106104,-0.0381 -0.106104,-0.0847 0,-0.0466 -0.06668,-0.0853 -0.148167,-0.086 -0.123918,-0.001 -0.127855,-0.0142 -0.02404,-0.0798 0.09938,-0.0629 0.07717,-0.0964 -0.111345,-0.16804 -0.129514,-0.0492 -0.251959,-0.0895 -0.272101,-0.0895 -0.02014,0 -0.222242,-0.13335 -0.449098,-0.29634 -0.226864,-0.16298 -0.472355,-0.29633 -0.545532,-0.29633 -0.07319,0 -0.156608,-0.0381 -0.185387,-0.0847 -0.02878,-0.0466 -0.0097,-0.0847 0.04233,-0.0847 0.05206,0 0.07111,-0.0381 0.04233,-0.0847 -0.02878,-0.0466 -0.124934,-0.0847 -0.213682,-0.0847 -0.08875,0 -0.202141,-0.0762 -0.251985,-0.16933 -0.04984,-0.0931 -0.145999,-0.16933 -0.213681,-0.16933 -0.160596,0 -0.463652,-0.26133 -0.463652,-0.39982 0,-0.0595 -0.05715,-0.10818 -0.127,-0.10818 -0.06985,0 -0.127,-0.0572 -0.127,-0.127 0,-0.0699 -0.05834,-0.127 -0.129658,-0.127 -0.07131,0 -0.151588,-0.0572 -0.178393,-0.127 -0.02681,-0.0699 -0.102752,-0.127 -0.168766,-0.127 -0.06602,0 -0.156252,-0.0953 -0.200516,-0.21167 -0.04426,-0.11642 -0.121251,-0.21167 -0.171086,-0.21167 -0.04984,0 -0.177063,-0.0864 -0.282727,-0.19212 -0.105664,-0.10566 -0.361104,-0.32374 -0.567648,-0.48464 -0.206544,-0.16089 -0.394589,-0.31535 -0.417872,-0.34323 -0.02328,-0.0279 -0.109009,-0.0753 -0.1905,-0.10536 -0.08149,-0.0301 -0.148167,-0.11302 -0.148167,-0.18432 0,-0.0713 -0.0381,-0.12966 -0.08467,-0.12966 -0.04657,0 -0.313266,-0.2286 -0.592666,-0.508 -0.2794,-0.2794 -0.5461,-0.508 -0.592667,-0.508 -0.04657,0 -0.08467,-0.0364 -0.08467,-0.081 0,-0.0445 -0.415154,-0.49942 -0.92257,-1.01088 -0.507407,-0.51144 -0.936032,-0.96682 -0.9525,-1.01195 -0.05044,-0.13826 -0.923324,-1.02888 -1.008388,-1.02888 -0.04393,0 -0.08126,-0.0476 -0.08296,-0.10583 -0.0017,-0.0582 -0.249343,-0.36947 -0.550333,-0.69169 -0.30099,-0.32222 -0.547252,-0.63622 -0.547252,-0.69779 0,-0.0616 -0.0762,-0.15951 -0.169333,-0.21767 -0.09313,-0.0582 -0.169333,-0.15306 -0.169333,-0.2109 0,-0.0578 -0.17145,-0.28408 -0.381,-0.50278 -0.20955,-0.2187 -0.381,-0.44797 -0.381,-0.50949 0,-0.0615 -0.0381,-0.11185 -0.08467,-0.11185 -0.04657,0 -0.08467,-0.05 -0.08467,-0.11116 0,-0.0611 -0.1143,-0.22066 -0.254,-0.35451 -0.1397,-0.13384 -0.254,-0.29456 -0.254,-0.35716 0,-0.0626 -0.05371,-0.13443 -0.119363,-0.15962 -0.06564,-0.0252 -0.142029,-0.13615 -0.169749,-0.24657 -0.02771,-0.11042 -0.164499,-0.32571 -0.30397,-0.47841 -0.139471,-0.1527 -0.253585,-0.32116 -0.253585,-0.37435 0,-0.0532 -0.07791,-0.19576 -0.173126,-0.31682 -0.09522,-0.12104 -0.169114,-0.25001 -0.164203,-0.28658 0.0049,-0.0366 -0.06995,-0.14843 -0.166361,-0.2486 -0.0964,-0.10016 -0.231115,-0.31575 -0.299356,-0.47908 -0.06824,-0.16332 -0.172653,-0.31315 -0.232012,-0.33294 -0.08716,-0.029 -0.107942,-4.9865 -0.107942,-25.74951 0,-17.144643 0.02838,-25.733662 0.08516,-25.773946 0.0934,-0.06626 1.311842,-1.844151 1.311842,-1.91417 0,-0.04481 1.063413,-1.539333 1.22268,-1.718352 0.04931,-0.05542 0.184903,-0.24025 0.30132,-0.410718 0.116417,-0.170468 0.269333,-0.373279 0.33981,-0.450698 0.07048,-0.07742 0.221047,-0.273592 0.334585,-0.435949 0.113547,-0.162356 0.22733,-0.31424 0.252857,-0.337523 0.02553,-0.02328 0.185039,-0.213784 0.354466,-0.423334 0.169418,-0.20955 0.378968,-0.461708 0.465666,-0.560352 0.08669,-0.09865 0.290966,-0.339946 0.453949,-0.536226 0.529006,-0.637076 1.458231,-1.626254 2.586203,-2.753042 1.192242,-1.191002 1.419368,-1.402807 2.451464,-2.286077 0.372533,-0.318815 0.734483,-0.642059 0.804333,-0.718319 0.06985,-0.07626 0.29845,-0.276605 0.508,-0.44521 0.20955,-0.168605 0.50623,-0.423193 0.659299,-0.56575 0.15306,-0.142558 0.457031,-0.382172 0.675496,-0.532476 0.218457,-0.150303 0.474582,-0.340566 0.569163,-0.422805 0.09458,-0.08224 0.628811,-0.462002 1.187171,-0.843916 0.55836,-0.381914 1.034254,-0.717163 1.057537,-0.744998 0.02328,-0.02784 0.147109,-0.09664 0.275167,-0.152904 0.128058,-0.05626 0.232833,-0.141212 0.232833,-0.188776 0,-0.04756 0.05051,-0.08648 0.112243,-0.08648 0.06173,0 0.201837,-0.09537 0.311336,-0.211932 0.109508,-0.116562 0.239971,-0.204908 0.289933,-0.196323 0.124028,0.02132 0.895155,-0.370884 0.895155,-0.455284 0,-0.03729 0.08935,-0.06779 0.198543,-0.06779 0.109203,0 0.267504,-0.0762 0.35179,-0.169333 0.08429,-0.09313 0.195834,-0.169333 0.247887,-0.169333 0.05205,0 0.28492,-0.123825 0.517491,-0.275167 0.232571,-0.151342 0.555549,-0.341607 0.717737,-0.422811 0.162187,-0.0812 0.352035,-0.182701 0.421885,-0.225547 0.06985,-0.04285 0.33655,-0.170937 0.592667,-0.284646 0.912029,-0.404917 1.486187,-0.68646 1.802316,-0.883784 0.176361,-0.11008 0.357623,-0.177294 0.402818,-0.149364 0.04519,0.02793 0.141741,-0.0088 0.214563,-0.08162 0.07282,-0.07282 0.197222,-0.132399 0.276445,-0.132399 0.07923,0 0.35273,-0.137701 0.607781,-0.306001 0.54588,-0.360205 0.68233,-0.417587 1.52121,-0.639717 0.34877,-0.09235 0.67262,-0.198698 0.71967,-0.236322 0.047,-0.03762 0.20912,-0.09483 0.36018,-0.127133 0.15108,-0.0323 0.31184,-0.122424 0.35726,-0.200277 0.0454,-0.07785 0.0838,-0.117831 0.0852,-0.08884 0.001,0.02899 0.2407,-0.01503 0.53174,-0.09783 1.27625,-0.363074 1.80482,-0.528496 1.88383,-0.589557 0.0466,-0.03599 0.21802,-0.09156 0.381,-0.123505 0.28571,-0.05599 0.71959,-0.175924 1.524,-0.421268 0.20955,-0.06391 0.8382,-0.215983 1.397,-0.337934 0.5588,-0.121951 1.17168,-0.257236 1.36196,-0.300634 0.19027,-0.0434 0.79987,-0.138914 1.35467,-0.21226 0.55478,-0.07335 1.25636,-0.169697 1.55904,-0.214114 2.14497,-0.314757 3.07002,-0.371814 6.096,-0.375999 2.43371,-0.0034 3.40515,0.02888 4.572,0.151753 1.41949,0.149478 4.01404,0.530496 4.99533,0.733579 0.25612,0.053 0.54922,0.109058 0.65133,0.124564 0.10211,0.01551 0.22725,0.05389 0.27808,0.08531 0.0508,0.03142 0.34699,0.09317 0.65812,0.137232 0.31115,0.04406 0.6514,0.136253 0.75611,0.204868 0.10473,0.06862 0.27476,0.124755 0.37787,0.124755 0.1744,0 0.56139,0.103863 0.96149,0.258054 0.42003,0.161872 0.52839,0.19076 0.84548,0.225402 0.18562,0.02028 0.35707,0.06741 0.381,0.104737 0.0239,0.03733 0.17687,0.09414 0.33985,0.126246 0.16299,0.03211 0.41064,0.111325 0.55034,0.176037 0.1397,0.06471 0.39687,0.140202 0.5715,0.16776 0.17462,0.02756 0.3175,0.08268 0.3175,0.122489 0,0.03981 0.20002,0.120279 0.4445,0.178815 0.24447,0.05854 0.4833,0.159245 0.53072,0.223797 0.0474,0.06455 0.18077,0.129721 0.29634,0.14482 0.2533,0.0331 0.4408,0.09886 0.88744,0.31129 0.18626,0.08859 0.41486,0.174015 0.508,0.189833 0.21659,0.03679 0.58989,0.208763 1.00283,0.462 0.17902,0.109785 0.34578,0.17933 0.37057,0.154542 0.0559,-0.05595 0.53157,0.18367 0.53166,0.267852 3e-5,0.03373 0.0975,0.06696 0.21661,0.07384 0.1191,0.0069 0.281,0.06699 0.35977,0.13356 0.0788,0.06657 0.30515,0.167244 0.50306,0.223714 0.21212,0.06053 0.35983,0.15341 0.35983,0.226273 0,0.06798 0.0667,0.124449 0.14817,0.125485 0.0815,10e-4 0.24341,0.07639 0.35983,0.16745 0.11642,0.09106 0.27834,0.166415 0.35983,0.16745 0.0815,10e-4 0.22437,0.07808 0.3175,0.171217 0.0931,0.09313 0.22241,0.169333 0.28728,0.169333 0.0649,0 0.13633,0.04792 0.15881,0.106489 0.0225,0.05857 0.24537,0.18003 0.49533,0.269914 0.24995,0.08988 0.49282,0.195071 0.53969,0.233747 0.0469,0.03868 0.17695,0.145963 0.28906,0.238412 0.11211,0.09245 0.35023,0.207512 0.52917,0.255694 0.17893,0.04818 0.32533,0.126484 0.32533,0.174004 0,0.04752 0.0358,0.0643 0.0795,0.03729 0.0437,-0.02701 0.11038,-5.93e-4 0.14817,0.05864 0.0378,0.05926 0.183,0.164777 0.3227,0.234476 0.1397,0.0697 0.28448,0.17441 0.32171,0.232695 0.0372,0.05828 0.13285,0.105971 0.21246,0.105971 0.0796,0 0.19236,0.0762 0.25052,0.169334 0.0582,0.09313 0.1585,0.169333 0.22297,0.169333 0.0645,0 0.13891,0.05651 0.16542,0.125573 0.0265,0.06906 0.10186,0.104975 0.16746,0.0798 0.0656,-0.02517 0.14357,0.01752 0.17325,0.09488 0.0297,0.07736 0.10731,0.120184 0.17249,0.09517 0.0753,-0.02891 0.13733,0.02943 0.17012,0.160052 0.0284,0.113044 0.0795,0.197469 0.11359,0.187612 0.12406,-0.03585 0.78168,0.308328 0.78168,0.409112 0,0.05698 0.1143,0.154204 0.254,0.216041 0.1397,0.06184 0.254,0.160281 0.254,0.218763 0,0.05848 0.0762,0.106332 0.16933,0.106332 0.0941,0 0.16934,0.05644 0.16934,0.127 0,0.06985 0.0736,0.127 0.16362,0.127 0.09,0 0.1874,0.07488 0.21645,0.166392 0.0335,0.105456 0.15958,0.186424 0.34437,0.22109 0.30492,0.0572 0.38078,0.176263 0.16504,0.259047 -0.0696,0.0267 -0.10505,0.08328 -0.0788,0.125725 0.0262,0.04245 0.0824,0.05574 0.12477,0.02955 0.11009,-0.06804 0.41766,0.105299 0.73452,0.413969 0.40236,0.391948 0.56966,0.526313 0.73372,0.589268 0.0809,0.03104 0.12345,0.09464 0.0946,0.141338 -0.0289,0.0467 0.0545,0.132106 0.18513,0.189795 0.13068,0.05769 0.28743,0.172206 0.34833,0.254482 0.24192,0.32686 0.97238,0.990702 1.04245,0.947391 0.041,-0.02532 0.0745,0.01336 0.0745,0.08596 0,0.0726 0.0572,0.131997 0.127,0.131997 0.0699,0 0.127,0.05715 0.127,0.127001 0,0.06985 0.0381,0.127 0.0847,0.127 0.0466,0 0.0847,0.07385 0.0847,0.164106 0,0.126431 0.0534,0.160447 0.23275,0.148166 0.18354,-0.01257 0.23854,0.02478 0.26016,0.176646 0.0151,0.105922 0.11956,0.252966 0.23219,0.326762 0.11262,0.0738 0.18725,0.162536 0.16583,0.1972 -0.0214,0.03466 0.0646,0.112505 0.19123,0.172981 l 0.23017,0.109956 -0.21167,0.06332 -0.21166,0.06332 0.23283,0.0084 c 0.12806,0.0046 0.23283,0.04654 0.23283,0.09311 0,0.04657 0.075,0.08467 0.16668,0.08467 0.11338,0 0.15109,0.04062 0.11794,0.127 -0.0298,0.07777 2e-5,0.127 0.077,0.127 0.0692,0 0.17016,0.104775 0.2244,0.232833 0.0542,0.128059 0.22925,0.328084 0.38893,0.4445 0.25613,0.186728 0.43052,0.432412 0.21034,0.296334 -0.0472,-0.02918 -0.0841,0.03415 -0.0834,0.143169 0.001,0.148012 0.0197,0.166414 0.0771,0.07576 0.0618,-0.09763 0.128,-0.07614 0.35854,0.116345 0.37434,0.312557 0.45951,0.467766 0.31376,0.571793 -0.088,0.06285 -0.0795,0.07089 0.0357,0.03368 0.0913,-0.02951 0.17047,8.98e-4 0.19955,0.07668 0.0265,0.06906 0.0969,0.125573 0.15639,0.125573 0.12974,0 0.3534,0.323525 0.42735,0.618152 0.0293,0.116851 0.14535,0.298915 0.25783,0.404579 0.11248,0.105664 0.2045,0.261679 0.2045,0.346693 0,0.08501 0.0381,0.154576 0.0847,0.154576 0.0466,0 0.0847,0.05715 0.0847,0.127 0,0.172508 0.14147,0.160392 0.24722,-0.02117 0.0779,-0.13368 0.0866,-0.134366 0.0889,-0.007 0.001,0.0776 0.0502,0.16333 0.1084,0.1905 0.0847,0.0395 0.0847,0.05927 0,0.09877 -0.17826,0.08319 -0.12421,0.278231 0.0635,0.229142 0.12285,-0.03212 0.17202,-9.32e-4 0.1791,0.113766 0.0145,0.2344 0.0292,0.308136 0.10351,0.517872 0.0676,0.190848 0.22539,0.264948 0.22539,0.105834 0,-0.04657 0.0457,-0.08467 0.1016,-0.08467 0.079,0 0.079,0.02258 0,0.1016 -0.15296,0.152967 -0.12423,0.232656 0.11695,0.32435 0.1202,0.0457 0.20184,0.13048 0.18141,0.188408 -0.0204,0.05792 0.0325,0.20486 0.11761,0.326534 0.0851,0.121675 0.13139,0.244602 0.10281,0.273169 -0.0286,0.02858 0.0107,0.07598 0.0872,0.105342 0.0765,0.02935 0.13912,0.125502 0.13912,0.213657 0,0.08815 0.0498,0.160274 0.11071,0.160274 0.0609,0 0.17797,0.152459 0.26018,0.338802 0.0822,0.186351 0.1944,0.386376 0.24928,0.4445 0.23137,0.24505 0.54848,0.813519 0.68678,1.231146 0.14052,0.424324 0.14588,1.797973 0.10107,25.876209 -0.0379,20.36867 -0.0688,25.47654 -0.15546,25.67155 -0.0595,0.1339 -0.1942,0.33832 -0.29936,0.45426 -0.10516,0.11594 -0.1912,0.27787 -0.1912,0.35983 0,0.082 -0.056,0.14903 -0.12434,0.14903 -0.0684,0 -0.10556,0.049 -0.0826,0.10881 0.023,0.0598 -0.0313,0.18725 -0.12066,0.28313 -0.0893,0.0959 -0.22459,0.29456 -0.30059,0.44153 -0.076,0.14695 -0.17085,0.2672 -0.21078,0.2672 -0.04,0 -0.0967,0.0667 -0.12619,0.14817 -0.10681,0.29549 -0.37162,0.6894 -0.96102,1.42956 -0.19791,0.24853 -0.35983,0.50924 -0.35983,0.57936 0,0.0701 -0.0762,0.17506 -0.16933,0.23323 -0.0931,0.0581 -0.16934,0.13974 -0.16934,0.18128 0,0.0415 -0.0692,0.13716 -0.15376,0.21247 -0.0846,0.0753 -0.30829,0.34648 -0.49715,0.6026 -0.18886,0.25611 -0.45305,0.58244 -0.58707,0.72517 -0.13402,0.14273 -0.37703,0.42578 -0.54002,0.62899 -0.16298,0.20322 -0.53874,0.62842 -0.83502,0.94491 -0.29628,0.31648 -0.62549,0.67643 -0.73157,0.79989 -0.12153,0.14143 -0.23247,0.2 -0.29989,0.15834 -0.0719,-0.0444 -0.0859,-0.032 -0.0428,0.0377 0.0417,0.0674 -0.28011,0.4434 -0.9169,1.07141 -0.53961,0.53215 -0.99411,0.96755 -1.00999,0.96755 -0.0159,0 -0.27751,0.23812 -0.58138,0.52916 -0.30387,0.29104 -0.69796,0.64347 -0.87575,0.78317 -0.17779,0.1397 -0.38244,0.32067 -0.45478,0.40217 -0.0723,0.0815 -0.15943,0.14816 -0.19353,0.14816 -0.0341,0 -0.15189,0.0857 -0.26177,0.1905 -0.26322,0.25103 -1.00531,0.83349 -1.58593,1.24478 -0.47557,0.33689 -0.64512,0.46269 -1.60867,1.1937 -0.30268,0.22963 -0.59795,0.41785 -0.65616,0.41827 -0.0582,0 -0.10584,0.0331 -0.10584,0.0728 0,0.0957 -0.82449,0.60533 -0.97928,0.60533 -0.0668,0 -0.12138,0.0336 -0.12138,0.0748 0,0.0411 -0.0667,0.0974 -0.14817,0.12499 -0.0815,0.0276 -0.31962,0.18193 -0.52917,0.34292 -0.20955,0.16099 -0.40905,0.29525 -0.44332,0.29834 -0.0343,0.003 -0.37718,0.19364 -0.762,0.42344 -0.38483,0.22979 -0.80084,0.44256 -0.92448,0.47282 -0.12364,0.0303 -0.31126,0.14705 -0.41693,0.25953 -0.10566,0.11247 -0.25406,0.2045 -0.32976,0.2045 -0.0757,0 -0.17383,0.0349 -0.21807,0.0774 -0.26822,0.25825 -1.91041,1.00441 -2.5146,1.14255 -0.12806,0.0293 -0.23284,0.0913 -0.23284,0.1379 0,0.0469 -0.10389,0.0645 -0.23283,0.0394 -0.18833,-0.0366 -0.20046,-0.0306 -0.0635,0.0316 l 0.16933,0.0769 -0.16933,0.0605 c -0.1607,0.0574 -0.56053,0.22091 -0.93133,0.38085 -0.37626,0.1623 -0.79825,0.25982 -0.98631,0.22793 -0.10947,-0.0186 -0.1514,-0.0174 -0.0932,0.002 0.17337,0.0593 0.12071,0.19165 -0.11135,0.27988 -0.27268,0.10368 -0.48499,0.10659 -0.4227,0.006 0.0261,-0.0422 -0.0262,-0.0575 -0.11614,-0.034 -0.09,0.0235 -0.1457,0.0894 -0.12383,0.14642 0.0467,0.12158 -0.70701,0.32213 -0.77813,0.20705 -0.0249,-0.0404 -0.12882,-0.069 -0.23085,-0.0636 -0.14324,0.008 -0.15175,0.0186 -0.0373,0.0485 0.0815,0.0213 0.14817,0.0714 0.14817,0.11126 0,0.11766 -0.87893,0.4176 -0.96943,0.33082 -0.10367,-0.0994 -0.24029,-0.1004 -0.17906,-0.001 0.0691,0.11187 -0.3675,0.26071 -1.17984,0.4022 -0.1397,0.0243 -0.37406,0.0982 -0.5208,0.16412 -0.14674,0.0659 -0.32546,0.11988 -0.39717,0.11988 -0.0717,0 -0.15356,0.0375 -0.18189,0.0834 -0.0284,0.0459 -0.13537,0.0791 -0.23784,0.0739 -0.10247,-0.005 -0.41338,0.0525 -0.69092,0.12829 -0.27755,0.0758 -0.59437,0.13776 -0.70407,0.13776 -0.10969,0 -0.27712,0.0416 -0.37206,0.0924 -0.16215,0.0868 -0.37711,0.12087 -0.94308,0.14956 -0.13081,0.007 -0.21631,0.0469 -0.19,0.0894 0.0263,0.0426 -0.24755,0.10508 -0.60858,0.13891 -0.36102,0.0338 -0.76888,0.0938 -0.90634,0.13319 -0.13746,0.0394 -0.27093,0.0396 -0.29659,0 -0.0257,-0.0392 -0.18001,-0.0742 -0.343,-0.0778 -0.25599,-0.006 -0.27687,0.008 -0.15339,0.099 0.1207,0.0892 0.0285,0.12225 -0.59267,0.21265 -0.40458,0.0589 -0.9642,0.0945 -1.2436,0.0792 -0.34125,-0.0187 -0.53607,0.008 -0.59349,0.0806 -0.0888,0.11275 -0.80424,0.16501 -0.95799,0.07 -0.0483,-0.0298 -0.10891,-0.0202 -0.13469,0.0216 -0.0258,0.0417 -0.41032,0.082 -0.85455,0.0895 -0.44423,0.008 -0.86247,0.0347 -0.92941,0.0604 -0.067,0.0257 -0.24334,-0.0139 -0.39198,-0.0881 -0.31568,-0.15748 -0.35741,-0.16479 -0.28656,-0.0502 0.0305,0.0493 -0.0647,0.0889 -0.22784,0.0948 -0.81532,0.0294 -1.18672,0.0288 -1.21744,-0.002 z m 2.39601,-0.14397 c -0.0281,-0.0281 -0.10116,-0.0311 -0.16228,-0.007 -0.0675,0.027 -0.0475,0.0471 0.0512,0.0511 0.0893,0.004 0.13926,-0.0163 0.11112,-0.0445 z m 0.27693,-0.0709 c 0,-0.0205 -0.0381,-0.0609 -0.0847,-0.0897 -0.0466,-0.0288 -0.0847,-0.012 -0.0847,0.0373 0,0.0493 0.0381,0.0897 0.0847,0.0897 0.0466,0 0.0847,-0.0168 0.0847,-0.0373 z m 3.7796,-0.24271 c 0.0322,-0.0322 -0.043,-0.0586 -0.16715,-0.0586 -0.12418,0 -0.22578,0.0379 -0.22578,0.0841 0,0.0905 0.29618,0.0712 0.39293,-0.0255 z m -13.73342,-0.13441 c 0.0258,-0.0417 -0.0101,-0.0977 -0.0797,-0.12435 -0.0769,-0.0295 -0.12652,0 -0.12652,0.0758 0,0.13694 0.1323,0.16809 0.20618,0.0486 z m -2.87318,-0.60154 c 0.0288,-0.0466 0.012,-0.0847 -0.0373,-0.0847 -0.0493,0 -0.0897,0.0381 -0.0897,0.0847 0,0.0466 0.0168,0.0847 0.0373,0.0847 0.0205,0 0.0609,-0.0381 0.0897,-0.0847 z m 9.13852,-0.16046 c 0.0258,-0.0417 -0.0132,-0.0988 -0.0866,-0.127 -0.23314,-0.0895 -0.31592,-0.0588 -0.20426,0.0758 0.11957,0.14407 0.22228,0.16215 0.29085,0.0512 z m 12.55555,-0.06 c -0.0281,-0.0281 -0.10116,-0.0311 -0.16228,-0.007 -0.0675,0.027 -0.0475,0.0471 0.0512,0.0512 0.0893,0.004 0.13926,-0.0163 0.11112,-0.0445 z M 119.12334,154.072 c 0.21914,-0.30776 0.25235,-1.1691 0.0481,-1.24748 -0.0699,-0.0268 -0.127,-0.0828 -0.127,-0.12434 0,-0.25505 -0.86211,-0.74815 -1.31234,-0.75062 -0.34162,-0.002 -0.889,0.15555 -0.889,0.25566 0,0.0444 -0.0572,0.0807 -0.127,0.0807 -0.0699,0 -0.127,0.0584 -0.127,0.12966 0,0.0713 -0.0572,0.15159 -0.127,0.17839 -0.0699,0.0268 -0.127,0.13991 -0.127,0.25135 0,0.11142 -0.0476,0.20561 -0.10583,0.20928 -0.0809,0.005 -0.0816,0.0165 -0.003,0.0484 0.0806,0.0327 0.0806,0.0781 0,0.21014 -0.0863,0.14139 -0.0764,0.18802 0.0616,0.29029 0.0904,0.067 0.13802,0.12185 0.10583,0.12185 -0.0322,0 0.0102,0.0687 0.0941,0.15261 0.23303,0.23303 0.99826,0.41925 1.76779,0.4302 0.67281,0.01 0.69777,0.003 0.86783,-0.23605 z m 14.31864,-0.13727 c 0.33402,-0.17273 0.31542,-0.21379 -0.0465,-0.1027 -0.16298,0.05 -0.29633,0.12266 -0.29633,0.16141 0,0.0988 0.0573,0.089 0.34288,-0.0587 z m -31.03454,-0.0402 c -0.0288,-0.0466 -0.0882,-0.0847 -0.132,-0.0847 -0.0438,0 -0.0797,0.0381 -0.0797,0.0847 0,0.0466 0.0594,0.0847 0.13199,0.0847 0.0726,0 0.10845,-0.0381 0.0797,-0.0847 z m 9.67237,-1.07913 c 0.14481,-0.11339 0.2017,-0.26873 0.24043,-0.65654 0.0469,-0.46982 0.0309,-0.53758 -0.21319,-0.90161 -0.14515,-0.2165 -0.3867,-0.45112 -0.53677,-0.5214 -0.34595,-0.162 -1.21277,-0.37711 -1.92384,-0.47742 -0.30269,-0.0427 -0.81704,-0.13893 -1.143,-0.21385 -0.32597,-0.0749 -0.78317,-0.17163 -1.016,-0.21492 -0.23284,-0.0433 -0.57574,-0.13207 -0.762,-0.19728 -0.18627,-0.0652 -0.51012,-0.16611 -0.71967,-0.2242 -0.20955,-0.0581 -0.43815,-0.12546 -0.508,-0.14973 -0.0699,-0.0242 -0.18415,-0.0517 -0.254,-0.0611 -0.32567,-0.0436 -0.74936,-0.16285 -1.05833,-0.29795 -0.18627,-0.0814 -0.51012,-0.19496 -0.71967,-0.25223 -0.20955,-0.0573 -0.4191,-0.13239 -0.46567,-0.16692 -0.0466,-0.0345 -0.27516,-0.11369 -0.508,-0.17591 -0.23283,-0.0622 -0.53763,-0.17613 -0.67733,-0.25316 -0.1397,-0.077 -0.36158,-0.16681 -0.49306,-0.19952 -0.13148,-0.0327 -0.6005,-0.22951 -1.04225,-0.43732 -0.44177,-0.2078 -0.83953,-0.37782 -0.88393,-0.37782 -0.0444,0 -0.14688,-0.0346 -0.22775,-0.0769 -0.0808,-0.0423 -0.81376,-0.40833 -1.628677,-0.81337 -0.814916,-0.40505 -1.602951,-0.82763 -1.751186,-0.93908 -0.148234,-0.11144 -0.329209,-0.20262 -0.402166,-0.20262 -0.07296,0 -0.132648,-0.0323 -0.132648,-0.0718 0,-0.0395 -0.146211,-0.13774 -0.324925,-0.21833 -0.178706,-0.0806 -0.432283,-0.23877 -0.563499,-0.35152 -0.131216,-0.11275 -0.289805,-0.20501 -0.352408,-0.20501 -0.06261,0 -0.113834,-0.031 -0.113834,-0.0688 0,-0.0378 -0.200025,-0.15653 -0.4445,-0.26376 -0.370976,-0.16272 -0.538159,-0.18724 -1.010709,-0.14824 -0.462525,0.0382 -0.615061,0.0903 -0.833001,0.28445 -0.146744,0.13074 -0.314257,0.35223 -0.372254,0.4922 -0.151401,0.36537 -0.232334,0.82355 -0.134823,0.76328 0.04446,-0.0275 0.138921,0.0891 0.209931,0.25903 0.09146,0.21891 0.167191,0.29436 0.259766,0.25884 0.07447,-0.0286 0.151307,0.004 0.178663,0.0749 0.02641,0.0688 0.07904,0.10591 0.116976,0.0825 0.03793,-0.0234 0.126466,0.0149 0.196748,0.0851 0.07027,0.0703 0.16173,0.12778 0.203242,0.12778 0.0415,0 0.203488,0.1143 0.359961,0.254 0.156472,0.1397 0.334789,0.254 0.396248,0.254 0.06146,0 0.111752,0.0351 0.111752,0.0781 0,0.043 0.142875,0.1247 0.3175,0.18165 0.174625,0.057 0.408364,0.17421 0.519421,0.26057 0.111049,0.0864 0.251206,0.15702 0.311446,0.15702 0.06025,0 0.159885,0.0498 0.221421,0.11057 0.06154,0.0608 0.169028,0.13743 0.238878,0.17027 0.06985,0.0328 0.2413,0.13269 0.381,0.2219 0.1397,0.0892 0.320675,0.165 0.402167,0.1684 0.08149,0.003 0.148167,0.0399 0.148167,0.081 0,0.0829 0.321394,0.20484 0.486833,0.18467 0.05821,-0.007 0.105833,0.0241 0.105833,0.0693 0,0.092 0.473837,0.34859 0.643797,0.34859 0.06038,0 0.140259,0.0495 0.177495,0.10996 0.07895,0.12822 0.88922,0.52256 1.240697,0.60382 0.132901,0.0307 0.340749,0.1208 0.461878,0.20017 0.22137,0.14504 0.58777,0.29561 1.09258,0.44898 0.14965,0.0455 0.29478,0.11936 0.32249,0.1642 0.0277,0.0448 0.14114,0.0815 0.25206,0.0815 0.11092,0 0.2245,0.0369 0.25239,0.082 0.0279,0.0451 0.35957,0.17962 0.73705,0.29887 0.3775,0.11925 0.78555,0.27216 0.90679,0.33979 0.12124,0.0676 0.53899,0.20174 0.92833,0.298 0.38934,0.0963 0.79695,0.23339 0.90581,0.30471 0.25072,0.16428 1.67457,0.54049 3.3393,0.88232 0.25612,0.0526 0.59902,0.12825 0.762,0.16814 0.64958,0.15899 1.86661,0.30216 2.70933,0.31873 0.73689,0.0145 0.92146,-0.008 1.07871,-0.13107 z m 14.66475,0.0553 c 0.16548,-0.0363 0.73903,-0.14918 1.27454,-0.25078 0.53552,-0.1016 1.12607,-0.23424 1.31233,-0.29477 0.18627,-0.0605 0.62232,-0.15278 0.96901,-0.205 0.34668,-0.0522 0.68006,-0.1362 0.74083,-0.18664 0.0608,-0.0504 0.1105,-0.0717 0.1105,-0.0473 0,0.0465 0.56743,-0.11254 0.93133,-0.26097 0.11642,-0.0475 0.53552,-0.17207 0.93133,-0.27684 0.39582,-0.10478 0.75807,-0.21948 0.80501,-0.25488 0.10843,-0.0818 0.79226,-0.33408 1.01533,-0.3746 0.24109,-0.0438 0.72359,-0.21483 0.98673,-0.34979 0.1236,-0.0634 0.27791,-0.11527 0.3429,-0.11527 0.065,0 0.16579,-0.0476 0.224,-0.10583 0.0582,-0.0582 0.1325,-0.10746 0.1651,-0.10944 0.16392,-0.01 0.79823,-0.26546 1.29984,-0.52352 0.30978,-0.15938 0.61458,-0.30024 0.67733,-0.31303 0.107,-0.0218 0.34474,-0.10395 0.53743,-0.18566 0.0466,-0.0197 0.23707,-0.12594 0.42333,-0.23599 0.18627,-0.11006 0.54822,-0.30628 0.80434,-0.43606 0.25611,-0.12978 0.48471,-0.25811 0.508,-0.28518 0.0233,-0.0271 0.13758,-0.0916 0.254,-0.14342 0.72982,-0.32476 1.016,-0.47609 1.016,-0.53728 0,-0.0383 0.14915,-0.12921 0.33146,-0.20216 0.18231,-0.0729 0.35601,-0.17233 0.386,-0.22086 0.03,-0.0485 0.12848,-0.0882 0.21887,-0.0882 0.0904,0 0.16433,-0.0343 0.16433,-0.0763 0,-0.042 0.13006,-0.15304 0.28902,-0.24682 0.47521,-0.28039 0.80024,-0.61341 0.90322,-0.92546 0.13588,-0.41171 0.0288,-1.10156 -0.22191,-1.43033 -0.4158,-0.54514 -1.29926,-0.77093 -1.95098,-0.49862 -0.16383,0.0684 -0.62822,0.34467 -1.03197,0.61383 -1.1677,0.77842 -1.81032,1.13933 -3.66004,2.05562 -2.45995,1.21857 -3.45317,1.64382 -4.953,2.12064 -0.32597,0.10363 -0.66887,0.22957 -0.762,0.27986 -0.0931,0.0503 -0.41699,0.1607 -0.71967,0.24535 -0.30268,0.0847 -0.74083,0.21214 -0.97367,0.28331 -0.74841,0.22876 -2.07218,0.54092 -3.9011,0.91991 -0.98145,0.20337 -1.91897,0.42598 -2.08337,0.49467 -0.34143,0.14266 -0.74652,0.54406 -0.74652,0.73972 0,0.0727 -0.0298,0.16829 -0.0663,0.21253 -0.0365,0.0442 -0.0422,0.25188 -0.0127,0.46143 0.0295,0.20955 0.0593,0.33337 0.0663,0.27517 0.0204,-0.16957 0.15805,-0.12208 0.20881,0.072 0.0268,0.1027 0.0863,0.15328 0.14058,0.11971 0.0517,-0.032 0.14835,-0.0131 0.21468,0.042 0.34754,0.28843 1.98721,0.43053 2.83077,0.24531 z m 10.60481,-0.43243 c -0.079,-0.079 -0.12418,-0.079 -0.2032,0 -0.079,0.079 -0.0565,0.1016 0.1016,0.1016 0.15805,0 0.18062,-0.0226 0.1016,-0.1016 z m 2.22086,-1.07548 c -0.0223,-0.0223 -0.10626,0.0282 -0.18664,0.11209 -0.13964,0.14578 -0.13784,0.14759 0.0405,0.0405 0.10266,-0.0616 0.16843,-0.13031 0.14615,-0.15258 z m 2.7146,-1.44661 c 0.0297,-0.048 -0.004,-0.0622 -0.0797,-0.0333 -0.14667,0.0563 -0.17351,0.11697 -0.0517,0.11697 0.0438,0 0.10295,-0.0377 0.13139,-0.0837 z m 0.69734,-0.30613 c -0.0281,-0.0281 -0.10116,-0.0311 -0.16228,-0.007 -0.0675,0.027 -0.0475,0.0471 0.0512,0.0512 0.0892,0.004 0.13926,-0.0163 0.11112,-0.0445 z m -23.97508,-2.43969 c 0.13272,-0.097 0.16435,-0.22331 0.16435,-0.65616 0,-0.45736 -0.0349,-0.58166 -0.23808,-0.8472 -0.13094,-0.17115 -0.33646,-0.37565 -0.45672,-0.45445 -0.2794,-0.18307 -1.16571,-0.20093 -1.47265,-0.0297 -0.25023,0.13961 -0.49955,0.37175 -0.49955,0.46512 0,0.0346 -0.0542,0.12304 -0.12041,0.19655 -0.15883,0.17633 -0.28073,0.64793 -0.14594,0.56463 0.0534,-0.033 0.097,-0.0196 0.097,0.0297 0,0.0493 0.0762,0.16586 0.16934,0.25899 0.0931,0.0931 0.16933,0.14365 0.16933,0.11224 0,-0.0314 0.0857,0.0226 0.1905,0.1201 0.25719,0.23922 0.66566,0.34356 1.38082,0.35269 0.39316,0.005 0.65388,-0.0335 0.762,-0.11254 z m 28.82401,-0.72649 c 0,-0.0466 -0.0857,-0.0841 -0.1905,-0.0834 -0.15404,0.001 -0.1662,0.017 -0.0635,0.0834 0.16415,0.10608 0.254,0.10608 0.254,0 z m 0.80433,-0.67733 c -0.0288,-0.0466 -0.0904,-0.0847 -0.13699,-0.0847 -0.0466,0 -0.0611,0.0381 -0.0323,0.0847 0.0288,0.0466 0.0904,0.0847 0.13699,0.0847 0.0466,0 0.0611,-0.0381 0.0323,-0.0847 z m -13.94364,-2.78233 c 0.14772,-0.0937 0.15437,-11.31725 0.007,-11.49504 -0.13191,-0.15895 -22.76529,-0.16803 -23.12394,-0.009 l -0.2349,0.10398 v 5.57526 c 0,5.50405 0.002,5.57583 0.16933,5.61955 0.0931,0.0243 0.16934,0.0753 0.16934,0.11318 0,0.0379 0.0857,0.0854 0.1905,0.1056 0.36264,0.0698 22.71228,0.0569 22.82285,-0.0132 z m 17.02698,-2.68997 c 0.46767,-0.0935 0.60044,-0.69824 0.30773,-1.40153 -0.12865,-0.30911 -0.67645,-0.72957 -1.03916,-0.79761 -0.32597,-0.0611 -1.08671,0.0829 -1.30402,0.247 -0.25057,0.18916 -0.49692,0.68893 -0.49724,1.00876 0,0.26488 0.0403,0.33634 0.25369,0.44668 0.1397,0.0722 0.254,0.16402 0.254,0.20397 0,0.0399 0.10477,0.0982 0.23283,0.12942 0.70145,0.17112 0.85557,0.19831 1.17475,0.20721 0.19209,0.005 0.46993,-0.0144 0.61742,-0.0439 z m -65.620267,-0.19381 c 0.05168,-0.0319 0.117357,-0.22878 0.145957,-0.43741 0.06469,-0.47202 -0.199703,-1.09153 -0.582041,-1.36378 -0.269384,-0.19182 -0.984724,-0.30022 -1.359856,-0.20606 -0.292913,0.0735 -0.695512,0.47597 -0.852865,0.85257 -0.184556,0.44171 -0.175353,0.57981 0.03421,0.51329 0.129379,-0.0411 0.156963,-0.0227 0.118127,0.0785 -0.02786,0.0726 -0.08478,0.11096 -0.126467,0.0852 -0.04169,-0.0258 -0.07565,-0.016 -0.07548,0.0217 0,0.0377 0.181153,0.13785 0.402166,0.22262 0.221023,0.0848 0.459004,0.1881 0.528854,0.22963 0.146761,0.0872 1.627225,0.0904 1.767399,0.004 z m 51.579527,-2.29256 c 0.12973,0 0.1624,-0.0607 0.1624,-0.30189 0,-0.41987 -0.11904,-0.60119 -0.5227,-0.79622 -0.29991,-0.1449 -0.39964,-0.15527 -0.71927,-0.0748 -0.21516,0.0542 -0.44132,0.18272 -0.53822,0.30591 -0.17973,0.22849 -0.21973,0.44365 -0.0825,0.44365 0.0466,0 0.0847,0.0522 0.0847,0.11599 0,0.16064 1.02554,0.41813 1.34043,0.33655 0.062,-0.0161 0.18584,-0.0292 0.27517,-0.0292 z m -27.3489,-0.17935 c 0.22431,-0.41914 -0.3723,-1.09065 -0.96901,-1.09065 -0.50554,0 -0.98368,0.38558 -0.98368,0.79325 0,0.25718 0.57193,0.45898 1.33052,0.46947 0.45345,0.006 0.53945,-0.0175 0.62217,-0.17207 z m 8.66327,-9.99287 c 0.17686,-0.16477 0.17916,-0.21329 0.18942,-3.99311 0.01,-3.65437 0.003,-3.84257 -0.15812,-4.18748 -0.20968,-0.44945 -0.56201,-0.70733 -1.04004,-0.76121 -0.52171,-0.0588 -0.92546,0.0365 -1.22583,0.28919 -0.48321,0.4066 -0.49601,0.50241 -0.50955,3.81578 -0.0173,4.22751 -0.0174,4.22476 0.12513,4.36726 0.0676,0.0676 0.0962,0.15482 0.0635,0.19376 -0.0327,0.0389 0.005,0.0211 0.085,-0.0395 0.15628,-0.11936 0.32121,-0.0655 0.32121,0.10487 0,0.0583 0.25427,0.18208 0.56505,0.27511 0.68473,0.20498 1.32279,0.17895 1.58425,-0.0646 z m -7.86206,-0.41358 c 0.1762,-0.19469 0.23459,-0.69033 0.12798,-1.08625 -0.0834,-0.30957 -0.47644,-0.75834 -0.80755,-0.92198 -1.04396,-0.51591 -2.24622,0.29184 -2.08876,1.40334 0.0183,0.12953 0.0691,0.18117 0.14817,0.15082 0.0703,-0.027 0.12026,0.006 0.12026,0.0782 0,0.0684 0.0397,0.12434 0.0882,0.12434 0.0485,0 0.17023,0.0764 0.27048,0.16981 0.10024,0.0934 0.24153,0.15141 0.31396,0.12893 0.0724,-0.0225 0.18884,-0.003 0.25869,0.0422 0.0699,0.0457 0.42089,0.0779 0.78008,0.0716 0.50677,-0.009 0.68342,-0.045 0.78849,-0.16106 z m 15.7544,-0.0122 c 0.15766,-0.15766 0.23953,-0.65321 0.16954,-1.02626 -0.059,-0.31426 -0.55398,-0.87101 -0.84666,-0.95224 -0.098,-0.0272 -0.25888,-0.0889 -0.35751,-0.13713 -0.12553,-0.0614 -0.32127,-0.0582 -0.65262,0.0106 -0.39085,0.0811 -0.52186,0.15692 -0.75202,0.43504 -0.15328,0.18522 -0.2826,0.40193 -0.28736,0.48156 -0.005,0.0796 -0.0359,0.23051 -0.0692,0.33528 -0.0459,0.14429 -0.0271,0.1905 0.0772,0.1905 0.0757,0 0.11557,0.0358 0.0885,0.0796 -0.0271,0.0438 0.0101,0.1295 0.0826,0.1905 0.0725,0.061 0.18216,0.15578 0.24371,0.21063 0.38324,0.34153 2.01536,0.47041 2.30385,0.18192 z m -27.80071,-0.057 c 0.0627,-0.0627 0.10528,-0.32085 0.10413,-0.63101 -0.003,-0.69883 -0.30631,-1.17504 -0.87246,-1.36795 -0.503344,-0.17151 -0.769502,-0.1648 -1.214078,0.0306 -0.41087,0.18057 -0.706442,0.56681 -0.791481,1.03427 -0.05066,0.27845 -0.03001,0.32493 0.225578,0.508 0.447226,0.32033 0.683319,0.43419 1.045717,0.50431 0.482914,0.0934 1.377514,0.0469 1.502594,-0.0782 z m 39.83795,0.0807 c 0.26474,-0.17318 0.34278,-0.71304 0.17387,-1.20284 -0.11393,-0.33039 -0.625,-0.83813 -0.84363,-0.83813 -0.0813,0 -0.16953,-0.0352 -0.1961,-0.0782 -0.11331,-0.18335 -1.09039,0.0641 -1.44027,0.3647 -0.32808,0.28191 -0.5266,1.23747 -0.25708,1.23747 0.0699,0 0.127,0.0374 0.127,0.0831 0,0.0457 0.10477,0.10795 0.23283,0.13838 0.12806,0.0304 0.28998,0.10387 0.35983,0.16322 0.0699,0.0593 0.22225,0.12613 0.33867,0.14838 0.29952,0.0573 1.41091,0.0454 1.50488,-0.0161 z m -10.32753,-3.47937 c 0.1069,-8.5e-4 0.28519,-0.0918 0.39621,-0.2028 l 0.20187,-0.20187 0.007,-3.74186 c 0.005,-2.62775 -0.0221,-3.84012 -0.0915,-4.07186 -0.31403,-1.04818 -1.84771,-1.27574 -2.55887,-0.37969 l -0.26602,0.33518 -0.0201,3.60182 c -0.0111,1.981 0.005,3.65896 0.035,3.72881 0.0303,0.0698 0.0584,0.16459 0.0625,0.21053 0.004,0.0459 0.12162,0.13741 0.26132,0.20328 0.1397,0.0659 0.28259,0.16781 0.31755,0.22653 0.0349,0.0587 0.21572,0.13251 0.40171,0.16393 0.186,0.0314 0.36228,0.0961 0.39172,0.14376 0.0305,0.0494 0.18549,0.0648 0.36028,0.0359 0.1687,-0.0279 0.3942,-0.0511 0.50109,-0.0517 z m -19.47559,-0.19907 c 0.12493,-0.12494 0.13626,-0.52262 0.11558,-4.05536 -0.0244,-4.15957 -0.0167,-4.07918 -0.4257,-4.47014 -0.34894,-0.33353 -0.56543,-0.42037 -1.04802,-0.42037 -0.48334,0 -0.99295,0.17493 -0.99295,0.34085 0,0.0454 -0.0571,0.0825 -0.127,0.0825 -0.0699,0 -0.127,0.073 -0.127,0.16228 0,0.0893 -0.0476,0.17812 -0.10583,0.19749 -0.0815,0.0271 -0.11556,0.85663 -0.14817,3.61356 -0.0233,1.96808 -0.0138,3.59595 0.0212,3.61749 0.0349,0.0216 0.0635,0.1544 0.0635,0.29523 0,0.16831 0.0363,0.24327 0.10583,0.21874 0.13814,-0.0487 0.58794,0.26678 0.52516,0.36835 -0.0266,0.043 0.10408,0.0782 0.29035,0.0782 0.18627,0 0.36154,0.037 0.38951,0.0823 0.0864,0.13981 1.30519,0.0473 1.46357,-0.11106 z m 42.73911,-3.74572 c 0.22986,-0.0617 0.36388,-0.56054 0.27089,-1.00814 -0.0872,-0.41956 -0.37665,-0.85225 -0.65646,-0.98123 -0.11676,-0.0538 -0.27846,-0.13152 -0.35931,-0.17266 -0.52586,-0.2675 -1.55681,0.15981 -1.80213,0.74695 -0.13462,0.32217 -0.17678,0.91475 -0.051,0.71628 0.0548,-0.0865 0.082,-0.0733 0.11596,0.0566 0.038,0.14538 0.47549,0.40056 1.07982,0.62987 0.16695,0.0633 1.17914,0.0723 1.4022,0.0124 z M 86.155366,119.5733 c 0.294902,-0.42103 0.0049,-1.44576 -0.495224,-1.74991 -0.641934,-0.39038 -1.368332,-0.28114 -1.899598,0.28568 -0.353492,0.37715 -0.526238,0.93245 -0.297274,0.95564 0.05821,0.006 0.143934,0.0155 0.1905,0.0213 0.04657,0.006 0.08467,0.0677 0.08467,0.13759 0,0.0699 0.05715,0.127 0.127,0.127 0.06985,0 0.127,0.0381 0.127,0.0847 0,0.0466 0.0762,0.0847 0.169333,0.0847 0.09313,0 0.169334,0.0356 0.169334,0.079 0,0.10624 0.339784,0.15383 1.083428,0.15175 0.528125,-0.002 0.635618,-0.0272 0.740834,-0.17743 z m 9.914576,-3.88687 c 0.04221,-1.62588 0.03046,-2.11738 -0.05301,-2.21796 -0.128532,-0.15487 -1.227243,-0.18517 -1.3192,-0.0364 -0.07441,0.1204 -0.149496,3.76528 -0.08302,4.03013 0.02788,0.11109 0.08504,0.18075 0.127026,0.1548 0.04199,-0.026 0.100651,-0.008 0.130369,0.0403 0.02972,0.0481 0.0895,0.0655 0.132851,0.0387 0.04335,-0.0268 0.07882,-0.0105 0.07882,0.0363 0,0.0904 0.760264,0.169 0.868138,0.0898 0.0351,-0.0258 0.08821,-0.98682 0.118034,-2.13563 z m 44.809578,2.10858 c 0.068,-0.082 0.0898,-0.76176 0.0739,-2.30717 l -0.0226,-2.19091 -0.54772,-0.0257 c -1.00841,-0.0473 -0.92613,-0.22408 -0.92841,1.99486 -0.001,1.09681 0.0356,2.04099 0.0852,2.19385 0.0809,0.249 0.12505,0.27416 0.61206,0.34904 0.28866,0.0444 0.54876,0.0855 0.57798,0.0915 0.0292,0.006 0.0966,-0.0415 0.14962,-0.10547 z m -20.53979,-4.66126 c 0.27003,-0.0732 0.55002,-0.13315 0.62221,-0.13315 0.1256,0 0.35603,-0.0917 1.07835,-0.42906 0.48771,-0.22779 1.34862,-1.02527 1.87453,-1.7364 0.25499,-0.3448 0.46362,-0.65822 0.46362,-0.69649 0,-0.0383 0.0817,-0.23866 0.18155,-0.44532 1.11401,-2.30546 0.90202,-5.16522 -0.54374,-7.33501 -0.57446,-0.86213 -1.95762,-2.22705 -2.25683,-2.22705 -0.0497,0 -0.0903,-0.0288 -0.0903,-0.064 0,-0.0352 -0.12382,-0.115121 -0.27516,-0.177591 -0.15135,-0.0625 -0.44662,-0.19269 -0.65617,-0.28934 -1.04974,-0.48422 -1.28121,-0.52726 -2.83633,-0.52733 -0.99242,-5e-5 -1.55764,0.0366 -1.82034,0.11796 -0.86922,0.2693 -1.07532,0.33845 -1.41816,0.47583 -0.19791,0.0793 -0.35984,0.17402 -0.35984,0.21048 0,0.0365 -0.0882,0.0884 -0.19597,0.11548 -0.24278,0.0609 -1.13682,0.739821 -1.73144,1.314751 -0.45509,0.44003 -1.02977,1.27375 -1.34854,1.95642 -0.39348,0.84269 -0.70338,2.16489 -0.70338,3.00107 0,0.54762 0.26704,2.16553 0.34906,2.11484 0.0361,-0.0223 0.0902,0.10332 0.12024,0.27924 0.03,0.17592 0.12717,0.42309 0.21595,0.54926 0.0888,0.12617 0.16142,0.3005 0.16142,0.3874 0,0.0869 0.0953,0.24749 0.21166,0.35686 0.11642,0.10936 0.21167,0.2333 0.21167,0.27539 0,0.10498 0.66975,0.74061 0.78036,0.74061 0.1255,0 0.48716,0.40579 0.58051,0.65132 0.043,0.11305 0.11405,0.18335 0.15792,0.15623 0.0439,-0.0271 0.15071,0.0268 0.2374,0.11988 0.0867,0.0931 0.245,0.18251 0.3518,0.19881 0.10679,0.0163 0.32185,0.13151 0.4779,0.25603 0.15605,0.12452 0.3353,0.22639 0.39832,0.22639 0.063,0 0.15078,0.0324 0.19502,0.0719 0.17689,0.15819 0.88636,0.38093 1.6891,0.53027 1.03448,0.19247 3.08868,0.16824 3.87763,-0.0457 z m -39.458793,-1.05846 c 0.03493,-0.003 0.0635,-2.57705 0.0635,-5.71941 v -5.71339 l -0.220768,-0.0554 c -0.228287,-0.0573 -2.219232,0.0327 -2.337274,0.10567 -0.112387,0.0695 -0.08239,10.74128 0.03089,10.9899 0.05363,0.11771 0.177453,0.23963 0.275166,0.27093 0.455033,0.14573 1.388347,0.19763 2.188481,0.12171 z m 76.297673,-0.0119 c 0.0656,-0.0656 0.0686,-11.41099 0.003,-11.51701 -0.0656,-0.10613 -1.92668,-0.0885 -2.29615,0.0218 l -0.26926,0.0804 -0.007,5.56966 c -0.007,6.31764 -0.0694,5.80898 0.71504,5.87661 0.57052,0.0492 1.79408,0.0285 1.85389,-0.0314 z m -13.58084,-0.96776 c 0.088,-0.106 0.0761,-0.127 -0.0717,-0.127 -0.12258,0 -0.16205,0.0391 -0.1283,0.127 0.0268,0.0699 0.059,0.127 0.0716,0.127 0.0126,0 0.0703,-0.0571 0.12831,-0.127 z m 2.01556,-1.54163 c 0.10403,-0.20239 0.11216,-6.3346 0.009,-6.60654 l -0.0801,-0.21065 -1.37428,0.0604 c -0.75586,0.0332 -1.40481,0.089 -1.44211,0.12395 -0.0827,0.0775 -0.0767,-0.23491 -0.0655,3.45904 l 0.009,3.0739 0.27135,0.1141 c 0.17724,0.0745 0.67421,0.11816 1.43293,0.12581 1.0381,0.0104 1.16984,-0.004 1.23953,-0.14 z m -52.868477,-0.20462 c 0.08738,-0.43692 0.06128,-6.25026 -0.02882,-6.41861 -0.07153,-0.13364 -0.185293,-0.15007 -0.910167,-0.1314 -0.455633,0.0117 -1.105797,0.0258 -1.444803,0.0313 l -0.616373,0.01 0.03171,3.21828 c 0.01744,1.77005 0.04716,3.23187 0.06604,3.24849 0.270637,0.23819 0.616365,0.3 1.695915,0.30317 l 1.153584,0.003 z m 3.207809,-1.61925 c 0.02218,-0.0582 0.04743,-0.49328 0.05609,-0.96683 0.01348,-0.73609 -0.0053,-0.87279 -0.12965,-0.94237 -0.131428,-0.0736 -0.135898,-0.1414 -0.04644,-0.70534 0.05444,-0.34318 0.108238,-0.89066 0.119541,-1.21663 l 0.02057,-0.59267 -0.635,0.0264 c -0.34925,0.0145 -0.664786,0.0557 -0.701201,0.0916 -0.101888,0.10037 -0.08145,4.08623 0.02149,4.18917 0.04787,0.0479 0.08705,0.0626 0.08705,0.0328 0,-0.0298 0.104775,0 0.232834,0.0672 0.288848,0.15068 0.91953,0.16146 0.974725,0.0167 z m 44.911858,-2.25072 0.0184,-2.30012 h -0.67459 -0.67459 v 2.14864 c 0,1.61648 0.0262,2.16998 0.10583,2.23483 0.10721,0.0873 0.96618,0.26679 1.12183,0.23439 0.0534,-0.0111 0.0915,-0.8675 0.10309,-2.31774 z m -7.17572,1.84855 c 0.291,0 0.32275,-0.0249 0.42446,-0.33309 0.20935,-0.63433 -0.10681,-1.41684 -0.70971,-1.75657 -0.51411,-0.28969 -1.29718,-0.20949 -1.73001,0.17719 -0.33921,0.30307 -0.60518,1.23514 -0.35244,1.23514 0.0466,0 0.0751,0.0402 0.0635,0.0894 -0.0209,0.0882 0.75554,0.456 1.24883,0.5915 0.1397,0.0384 0.36355,0.0533 0.49742,0.0331 0.13388,-0.0202 0.38496,-0.0367 0.55795,-0.0367 z m -29.57043,-0.254 c 0.18023,-0.35686 0.13551,-0.978 -0.0969,-1.34622 -0.30808,-0.48802 -0.84951,-0.72344 -1.50602,-0.65482 -0.39505,0.0413 -0.55644,0.10176 -0.70797,0.26526 -0.10794,0.11648 -0.2269,0.21178 -0.26436,0.21178 -0.0805,0 -0.27865,0.60057 -0.27865,0.84436 0,0.23994 0.25669,0.51031 0.48448,0.51031 0.11231,0 0.19285,0.0514 0.19285,0.12316 0,0.0764 0.12045,0.14331 0.3175,0.17627 0.17462,0.0292 0.3556,0.0672 0.40217,0.0844 0.0466,0.0172 0.36937,0.0236 0.71734,0.0142 0.58182,-0.0157 0.64129,-0.034 0.73959,-0.22869 z m 20.51407,-4.318 c 0,-0.0466 -0.0381,-0.0847 -0.0847,-0.0847 -0.0466,0 -0.0847,0.0381 -0.0847,0.0847 0,0.0466 0.0381,0.0847 0.0847,0.0847 0.0466,0 0.0847,-0.0381 0.0847,-0.0847 z m -1.43934,-3.725331 c 0,-0.0466 -0.0572,-0.0847 -0.127,-0.0847 -0.0699,0 -0.127,0.0381 -0.127,0.0847 0,0.0466 0.0572,0.0847 0.127,0.0847 0.0698,0 0.127,-0.0381 0.127,-0.0847 z m 19.27965,-0.21756 c 0.18911,-0.18911 0.22701,-0.77141 0.076,-1.16695 -0.21488,-0.56265 -0.58609,-0.84073 -1.25097,-0.93712 -0.57584,-0.0835 -1.26624,0.27267 -1.46412,0.7553 -0.0999,0.2436 -0.13373,0.86109 -0.039,0.71147 0.0568,-0.0898 0.0755,-0.0723 0.0765,0.0717 8.5e-4,0.11407 0.0533,0.1905 0.13095,0.1905 0.0713,0 0.1513,0.0564 0.17776,0.12535 0.0605,0.15755 0.50641,0.29549 1.21658,0.37631 0.60577,0.0689 0.91749,0.0323 1.07632,-0.12655 z m -38.46571,-0.001 c 0.0283,-0.0737 0.0526,-1.26429 0.0541,-2.64583 0.003,-2.547903 0.0328,-2.808245 0.32414,-2.808245 0.0531,0 0.0965,-0.0381 0.0965,-0.08467 0,-0.04657 0.0525,-0.08467 0.11664,-0.08467 0.0641,0 0.16087,-0.05331 0.21496,-0.118482 0.11347,-0.13672 0.83595,-0.209009 2.62465,-0.262594 0.67133,-0.02011 1.25289,-0.06887 1.29238,-0.108357 0.0395,-0.03948 0.0617,-1.288542 0.0494,-2.775678 l -0.0224,-2.703906 -2.30585,-0.0058 c -1.26821,-0.0031 -2.33188,-0.03177 -2.36369,-0.06359 -0.0318,-0.03181 -0.0537,-1.249866 -0.0487,-2.706785 0.005,-1.45691 -0.0206,-2.697023 -0.0569,-2.755807 -0.0838,-0.135619 -4.26802,-0.106494 -4.40494,0.03066 -0.0548,0.05491 -0.0891,1.009184 -0.0934,2.599825 -0.006,2.233947 -0.0227,2.531729 -0.15031,2.680996 -0.13459,0.157438 -0.2809,0.170366 -2.343932,0.207179 l -2.200385,0.03926 -0.09859,0.240995 c -0.05422,0.132546 -0.08401,0.26466 -0.06619,0.29359 0.01782,0.02892 0.03639,1.088628 0.04127,2.354885 0.008,2.069957 0.0231,2.306651 0.149911,2.345428 0.07757,0.02371 0.217246,0.08489 0.310379,0.135941 0.09574,0.05248 0.997263,0.124206 2.074333,0.165032 2.063004,0.0782 2.396564,0.115181 2.196914,0.243603 -0.0918,0.05904 -0.0972,0.09533 -0.0214,0.14445 0.0739,0.04791 0.10812,0.77089 0.127,2.68118 0.0198,1.99857 0.0508,2.62389 0.13168,2.65079 0.0582,0.0194 0.10584,0.0839 0.10584,0.14334 0,0.17502 0.92511,0.27652 2.63677,0.2893 1.36831,0.0102 1.58528,-0.006 1.62983,-0.12214 z m 6.28508,0.0457 c 0.75111,-0.24789 0.49679,-1.55975 -0.38914,-2.0073 -0.68947,-0.34831 -1.53988,-0.17363 -1.94851,0.40025 -0.10022,0.14075 -0.16325,0.25591 -0.14004,0.25591 0.0232,0 0.01,0.11316 -0.0299,0.25146 -0.11554,0.40287 0.009,0.71611 0.29385,0.73799 0.13244,0.0102 0.26361,0.0554 0.2915,0.10057 0.0664,0.10743 0.88827,0.31649 1.31718,0.33505 0.18532,0.008 0.45761,-0.0253 0.60509,-0.0739 z m 17.13332,-0.0633 c 0.23713,-0.19201 0.32536,-0.82628 0.1587,-1.14077 -0.18129,-0.34208 -0.73615,-0.90225 -0.94582,-0.95488 -0.31704,-0.0796 -1.0264,0.0104 -1.25306,0.15888 -0.46461,0.30443 -0.73693,0.8102 -0.68349,1.26943 0.0194,0.16637 0.0647,0.22535 0.1486,0.19316 0.0721,-0.0276 0.12073,0.006 0.12073,0.083 0,0.0711 0.0358,0.1072 0.0796,0.0801 0.0438,-0.0271 0.15048,0.0269 0.23709,0.11981 0.31807,0.34141 1.7896,0.47305 2.13763,0.19123 z m 8.54371,0.0349 c 0.069,-0.0831 0.0882,-0.76998 0.067,-2.39183 -0.0387,-2.959104 -0.057,-2.834491 0.47273,-3.215085 0.50125,-0.360113 0.5437,-0.367216 2.64387,-0.442104 l 1.60866,-0.05736 0.0223,-2.763367 0.0223,-2.763368 -0.19501,-0.04895 c -0.10725,-0.02692 -1.14186,-0.048 -2.29911,-0.04684 -1.42973,0.0014 -2.13419,-0.02797 -2.19797,-0.09174 -0.0642,-0.06421 -0.0965,-0.909371 -0.10228,-2.676152 -0.005,-1.54316 -0.0415,-2.615345 -0.0905,-2.664418 -0.12216,-0.122166 -4.1507,-0.121158 -4.29798,0.0011 -0.0934,0.07751 -0.11555,0.555591 -0.11325,2.443344 0.002,1.290845 -0.0247,2.472665 -0.0585,2.626276 -0.0397,0.180568 -0.13077,0.30568 -0.25777,0.353966 -0.10802,0.04107 -0.81133,0.07584 -1.56288,0.07725 -0.75156,0.0014 -1.55473,0.02756 -1.78485,0.05808 -0.27033,0.03587 -0.46015,0.02082 -0.53645,-0.0425 -0.19503,-0.161857 -0.54805,0.0515 -0.60723,0.367005 -0.0378,0.201261 -0.014,2.851759 0.0424,4.725831 0.002,0.08149 0.0616,0.148166 0.13145,0.148166 0.0699,0 0.127,0.05715 0.127,0.127 0,0.06985 0.0286,0.120591 0.0635,0.112751 0.0349,-0.0079 0.19685,0.0095 0.35984,0.03843 0.16298,0.02897 1.08146,0.07259 2.04105,0.09693 1.73549,0.04402 2.06455,0.08174 1.97513,0.226432 -0.0258,0.04169 -0.0224,0.115274 0.007,0.163534 0.0298,0.04826 0.0575,1.267329 0.0615,2.709049 0.007,2.43799 0.0182,2.63122 0.16397,2.7631 0.20342,0.18409 0.92435,0.25498 2.74675,0.27009 1.13961,0.009 1.47086,-0.0129 1.54691,-0.1046 z m -40.366602,-0.14822 c 0.155439,-0.15544 0.173965,-0.24795 0.13523,-0.67518 -0.06935,-0.76482 -0.535695,-1.22526 -1.33709,-1.32017 -0.527812,-0.0625 -0.927363,0.0833 -1.283691,0.4684 -0.421606,0.45566 -0.486444,1.19906 -0.10458,1.19906 0.06821,0 0.12402,0.0444 0.12402,0.0988 0,0.0543 0.02406,0.0747 0.05347,0.0453 0.0294,-0.0294 0.134179,-0.008 0.232833,0.0464 0.09865,0.0549 0.198416,0.1045 0.2217,0.11017 0.02328,0.006 0.09948,0.0334 0.169333,0.0615 0.23898,0.0964 0.466048,0.12618 1.037167,0.13599 0.477977,0.008 0.600972,-0.0196 0.751611,-0.17029 z m 56.198172,-3.91108 c 0.28,-0.0723 0.28745,-0.0858 0.32977,-0.596225 0.0511,-0.616255 -0.13808,-0.994757 -0.66923,-1.338935 -0.22785,-0.147642 -0.51873,-0.274524 -0.64639,-0.281957 -0.37725,-0.02199 -0.95689,0.185538 -1.21861,0.436287 -0.2633,0.252247 -0.4509,0.788848 -0.37772,1.080397 0.0439,0.175083 0.69634,0.566593 1.21978,0.731983 0.23986,0.0758 1.01642,0.0578 1.3624,-0.0316 z m -65.972828,-0.0563 c 0.292701,-0.002 0.450545,-0.22663 0.450545,-0.641631 0,-0.374286 -0.233426,-1.052864 -0.362179,-1.052864 -0.03753,0 -0.145482,-0.07197 -0.239894,-0.159927 -0.190686,-0.177656 -0.522224,-0.263407 -1.018362,-0.263407 -0.62788,0 -1.262202,0.631114 -1.253981,1.247648 0.0041,0.305927 0.02526,0.328761 0.529166,0.570311 0.512513,0.24569 1.201336,0.39409 1.540917,0.33199 0.09313,-0.017 0.25234,-0.0315 0.353788,-0.0321 z M 141.05777,93.95059 c 0,-0.04657 -0.0572,-0.08467 -0.127,-0.08467 -0.0699,0 -0.127,0.0381 -0.127,0.08467 0,0.04657 0.0571,0.08467 0.127,0.08467 0.0699,0 0.127,-0.0381 0.127,-0.08467 z M 119.1291,92.629991 c 0.11164,-0.109694 0.1237,-1.205018 0.0997,-9.058377 -0.0288,-9.444285 -0.0217,-9.277162 -0.41023,-9.612852 -0.41015,-0.354353 -1.36534,-0.561974 -1.50983,-0.328175 -0.0288,0.04657 -0.12308,0.08467 -0.20955,0.08467 -0.19844,0 -0.63836,0.553489 -0.70659,0.889 -0.065,0.319888 -0.0754,17.470976 -0.0106,17.57581 0.0262,0.04245 0.11951,0.07719 0.20725,0.07719 0.0877,0 0.21274,0.07595 0.27776,0.168791 0.065,0.09284 0.14247,0.14456 0.17209,0.114935 0.0296,-0.02962 0.10539,-0.01109 0.16837,0.04118 0.31622,0.262441 1.66891,0.296113 1.92158,0.04783 z m 5.43984,-1.73874 c 0.0815,-0.0436 0.15256,-0.125569 0.15792,-0.182143 0.005,-0.05657 0.0149,-0.160003 0.0212,-0.229853 0.006,-0.06985 0.059,-0.117475 0.11724,-0.105834 0.0582,0.01164 0.10583,-0.05503 0.10583,-0.148166 0,-0.09313 -0.0447,-0.159809 -0.0993,-0.148167 -0.0546,0.01164 -0.14032,-0.117881 -0.1905,-0.287841 -0.0502,-0.169952 -0.158,-0.382592 -0.23959,-0.472533 -0.0816,-0.08994 -0.11969,-0.195123 -0.0847,-0.23374 0.035,-0.03861 0.0184,-0.04421 -0.0371,-0.01245 -0.0554,0.03177 -0.22685,-0.01913 -0.381,-0.113106 -0.31257,-0.190576 -0.9777,-0.231123 -1.28065,-0.07807 -0.26101,0.13186 -0.64489,0.573989 -0.70446,0.811352 -0.04,0.159402 -0.0743,0.180518 -0.16756,0.103124 -0.0917,-0.0761 -0.11725,-0.06737 -0.11725,0.04006 0,0.07555 0.0572,0.137364 0.127,0.137364 0.0699,0 0.12249,0.02858 0.11698,0.0635 -0.0266,0.168673 0.0287,0.558385 0.0661,0.465666 0.0555,-0.137558 0.19792,-0.136982 0.19792,8.47e-4 0,0.404817 1.81203,0.700303 2.39184,0.390026 z m 20.81269,-0.01229 c 0.15765,-0.146872 0.17716,-0.240555 0.1474,-0.707856 -0.031,-0.487545 -0.0645,-0.569561 -0.35357,-0.865547 -0.48747,-0.499212 -1.2249,-0.658716 -1.7724,-0.383354 -0.42824,0.215383 -0.82129,0.698305 -0.82129,1.009091 0,0.322411 0.23397,0.824332 0.35064,0.752221 0.0459,-0.02833 0.1556,0.01386 0.2439,0.09377 0.22528,0.203886 0.61355,0.282101 1.37071,0.276115 0.53121,-0.0042 0.68678,-0.03671 0.83461,-0.174438 z m -52.944785,0.05772 c 0.468079,-0.09362 0.543543,-0.878061 0.14356,-1.492225 -0.385733,-0.592269 -1.216566,-0.81136 -1.899302,-0.500845 -0.522621,0.237701 -0.62257,0.337024 -0.757199,0.752534 -0.09105,0.281009 -0.095,0.407306 -0.01801,0.576275 0.05423,0.119016 0.133646,0.194725 0.176496,0.168241 0.04284,-0.02647 0.09031,0.01593 0.105469,0.09424 0.05642,0.291312 1.506254,0.550325 2.248984,0.401777 z m 21.081235,-0.168978 c 0.1602,-0.213529 0.10116,-0.847191 -0.11834,-1.270152 -0.45252,-0.872008 -2.0241,-0.945202 -2.51329,-0.11706 -0.28845,0.488315 -0.31922,0.743686 -0.11277,0.936023 0.1018,0.09484 0.18509,0.216459 0.18509,0.270256 0,0.180933 1.05103,0.401126 1.76943,0.370697 0.53792,-0.02278 0.69246,-0.05991 0.78988,-0.189764 z m 15.52683,-10.185482 c 0.14933,-0.160283 0.15678,-0.45781 0.16066,-6.417353 0.002,-3.437104 -0.0201,-6.369051 -0.0496,-6.515437 -0.031,-0.153759 -0.20196,-0.408607 -0.40476,-0.603478 -0.32587,-0.313118 -0.3941,-0.340664 -0.95095,-0.383915 -0.4774,-0.03708 -0.64257,-0.01758 -0.80889,0.09548 -0.3498,0.237777 -0.55692,0.489347 -0.64918,0.788438 -0.0574,0.186212 -0.0865,2.379498 -0.0838,6.328992 0.004,5.407684 0.0183,6.060641 0.13925,6.201832 0.0743,0.0868 0.1838,0.15781 0.24329,0.15781 0.0595,0 0.10819,0.03631 0.10819,0.0807 0,0.08005 0.31604,0.244187 0.80434,0.417736 0.3996,0.142029 1.30384,0.05061 1.49147,-0.150799 z m -19.95307,-0.02857 c 0.11719,-0.167327 0.13202,-0.914171 0.12961,-6.531133 -0.003,-5.843301 -0.0142,-6.3628 -0.1487,-6.604019 -0.17696,-0.317373 -0.24292,-0.388988 -0.56931,-0.618162 -0.57245,-0.401934 -1.59456,-0.204747 -1.99335,0.38456 l -0.20799,0.307354 -0.0252,5.969 c -0.0139,3.28295 -0.002,6.130925 0.0264,6.328834 0.0334,0.232689 0.0946,0.359833 0.17342,0.359833 0.067,0 0.12623,0.08573 0.13163,0.1905 0.009,0.165676 0.0152,0.169181 0.0515,0.02692 0.0396,-0.155431 0.0489,-0.153992 0.18678,0.02878 0.18244,0.241859 0.53934,0.326805 1.41925,0.337795 0.6269,0.0078 0.70644,-0.0095 0.82604,-0.180264 z m 49.04176,-3.975608 c -0.027,-0.06754 -0.0471,-0.04748 -0.0512,0.05116 -0.004,0.08925 0.0163,0.139259 0.0445,0.111125 0.0281,-0.02813 0.0311,-0.10116 0.007,-0.162281 z m -62.181997,0.0025 c 0.08149,0.0015 0.148167,-0.03289 0.148167,-0.07656 0,-0.04368 -0.03716,-0.07941 -0.08257,-0.07941 -0.05318,0 -0.05251,-0.07908 0.0019,-0.222115 0.186546,-0.490643 -0.161494,-1.33532 -0.660832,-1.603815 -0.215257,-0.115743 -0.471932,-0.163639 -0.875691,-0.163401 -0.491997,2.54e-4 -0.602496,0.02963 -0.797043,0.211666 -0.434611,0.406659 -0.736287,1.354332 -0.431131,1.354332 0.06487,0 0.139023,0.05493 0.164787,0.122064 0.135119,0.352137 0.950984,0.567088 1.876272,0.494343 0.2794,-0.02197 0.574675,-0.03867 0.656167,-0.0371 z m 47.745187,-1.189177 c 0.38642,-0.07925 0.39764,-0.09061 0.49646,-0.502525 0.14475,-0.603382 -0.0435,-1.072457 -0.57062,-1.42158 -0.7424,-0.49175 -1.32842,-0.431993 -2.01668,0.205642 -0.33377,0.309215 -0.39595,1.143 -0.0852,1.143 0.0713,0 0.12972,0.05715 0.12972,0.127 0,0.06985 0.0743,0.127 0.16513,0.127 0.0908,0 0.1956,0.05067 0.23283,0.112598 0.069,0.114639 0.65796,0.275794 1.04138,0.284921 0.11641,0.0028 0.38957,-0.03145 0.60702,-0.07606 z m 13.02431,-0.607455 c 0,-0.01758 -0.058,-0.08012 -0.12894,-0.138975 -0.1078,-0.08947 -0.1202,-0.08424 -0.0756,0.03197 0.0455,0.118679 0.20455,0.201864 0.20455,0.107008 z M 85.818358,74.298882 c 0.04178,-0.06761 0.07491,-0.0662 0.118949,0.0051 0.04057,0.06564 0.111065,0.0224 0.210244,-0.128966 0.213495,-0.325837 0.153128,-1.16925 -0.109042,-1.523503 -0.301473,-0.407354 -0.66725,-0.583372 -1.200023,-0.57748 -0.636042,0.007 -1.007838,0.201985 -1.296433,0.679781 -0.194818,0.322526 -0.227745,0.452232 -0.182609,0.719369 0.03029,0.179245 0.09573,0.351036 0.14544,0.381758 0.05337,0.03298 0.06564,0.01583 0.02997,-0.04189 -0.0358,-0.05792 -0.0066,-0.09775 0.07159,-0.09775 0.07259,0 0.131995,0.03135 0.131995,0.06966 0,0.09831 0.666428,0.41943 1.063667,0.512538 0.472288,0.110696 0.948309,0.111367 1.016254,0.0014 z m 66.023802,-0.0716 c 0.46003,-0.174904 0.43803,-1.192484 -0.0365,-1.689057 -0.50735,-0.530902 -1.44306,-0.690593 -1.90904,-0.325808 -0.53998,0.422698 -0.71444,0.727535 -0.70487,1.23165 0.004,0.233397 0.0223,0.271679 0.0701,0.149803 0.0441,-0.112544 0.0835,-0.13239 0.12604,-0.0635 0.0341,0.05512 0.0391,0.137197 0.0111,0.182398 -0.0279,0.0452 0.0465,0.106604 0.16542,0.13645 0.11891,0.02985 0.2443,0.100518 0.27863,0.15705 0.12387,0.203971 1.61142,0.368425 1.99914,0.221014 z M 93.861742,68.942348 c 0.444322,-0.09541 1.349189,-0.496868 1.476028,-0.65487 0.02328,-0.029 0.128058,-0.07949 0.232833,-0.112185 0.104775,-0.0327 0.1905,-0.09498 0.1905,-0.138411 0,-0.04343 0.04996,-0.07896 0.111032,-0.07896 0.06107,0 0.192828,-0.0762 0.292794,-0.169334 0.09997,-0.09313 0.232884,-0.169333 0.295368,-0.169333 0.06248,0 0.149801,-0.03545 0.19404,-0.07878 0.08992,-0.08807 3.196263,-1.652389 3.774133,-1.900612 0.20367,-0.08748 0.5227,-0.229163 0.70897,-0.314845 0.18626,-0.08568 0.4438,-0.18025 0.57229,-0.210153 0.1285,-0.0299 0.25458,-0.08825 0.28017,-0.129655 0.0256,-0.04141 0.10795,-0.07529 0.18303,-0.07529 0.0751,0 0.19666,-0.0517 0.27018,-0.114887 0.0735,-0.06319 0.28606,-0.155948 0.47233,-0.206134 0.18626,-0.05019 0.60536,-0.192538 0.93133,-0.316337 0.32597,-0.123798 0.78317,-0.274462 1.016,-0.334808 0.23283,-0.06035 0.53763,-0.156539 0.67733,-0.213763 0.35002,-0.143377 0.76956,-0.243527 1.27,-0.303169 0.23284,-0.02775 0.4654,-0.0851 0.5168,-0.127445 0.0862,-0.07098 1.15733,-0.330343 2.06554,-0.500137 0.20955,-0.03918 0.7239,-0.154269 1.143,-0.255761 0.4191,-0.101492 0.89535,-0.203232 1.05833,-0.22609 0.38067,-0.05339 0.58639,-0.329156 0.65072,-0.872279 0.0965,-0.814983 -0.33293,-1.456449 -1.13621,-1.697116 -0.42016,-0.125884 -0.91974,-0.04669 -4.00184,0.634337 -1.34514,0.297227 -1.82321,0.418097 -1.86267,0.470941 -0.0233,0.03118 -0.17568,0.08202 -0.33867,0.112977 -0.64812,0.123115 -2.14006,0.625059 -4.10633,1.381529 -0.79871,0.307282 -0.91531,0.354196 -1.397,0.562124 -0.77161,0.333072 -1.396094,0.566798 -1.51743,0.567932 -0.07346,6.77e-4 -0.22882,0.05606 -0.345237,0.123039 -0.116417,0.06699 -0.668866,0.356956 -1.227666,0.644379 -1.338335,0.688382 -1.395358,0.719823 -1.505729,0.830195 -0.05196,0.05196 -0.142088,0.09447 -0.200296,0.09447 -0.0582,0 -0.269655,0.104775 -0.4699,0.232833 -0.466759,0.298502 -0.593429,0.374805 -1.21898,0.734311 -0.28393,0.163176 -0.56482,0.355222 -0.624197,0.426769 -0.05938,0.07155 -0.143941,0.130087 -0.187917,0.130087 -0.346583,0 -1.056293,0.994849 -0.948699,1.329879 0.0975,0.303642 0.233232,0.532787 0.315578,0.532787 0.152671,0 0.733806,0.285065 0.733806,0.359957 0,0.04035 0.02858,0.05749 0.0635,0.03807 0.03493,-0.01941 0.254,-0.0077 0.486834,0.02602 0.232833,0.03373 0.461433,0.06507 0.508,0.06966 0.04657,0.0046 0.315806,-0.04129 0.598305,-0.101953 z m 50.431268,-0.15759 c 0.28446,-0.369567 0.13187,-1.347747 -0.27386,-1.755558 -0.11243,-0.113014 -0.71937,-0.514598 -1.89658,-1.2549 -0.18271,-0.114898 -0.54466,-0.324947 -0.80433,-0.466774 -0.25968,-0.141827 -0.58644,-0.327802 -0.72614,-0.413277 -0.1397,-0.08548 -0.52746,-0.286149 -0.8617,-0.44594 -0.33424,-0.159792 -0.75987,-0.386583 -0.94584,-0.503981 -0.18597,-0.117398 -0.57925,-0.293091 -0.87396,-0.390428 -0.29471,-0.09734 -0.69734,-0.251152 -0.89474,-0.341811 -0.1974,-0.09066 -0.39425,-0.164835 -0.43745,-0.164835 -0.0432,0 -0.0912,-0.02937 -0.10676,-0.06526 -0.0155,-0.03589 -0.31397,-0.165197 -0.66322,-0.287344 -0.90662,-0.317089 -1.22139,-0.443428 -1.27214,-0.51061 -0.0245,-0.03238 -0.23245,-0.101005 -0.4622,-0.152493 -0.22975,-0.05149 -0.45739,-0.122905 -0.50586,-0.158705 -0.0485,-0.0358 -0.25958,-0.114988 -0.46913,-0.175975 -0.20955,-0.06099 -0.5334,-0.159161 -0.71967,-0.218163 -0.18626,-0.059 -0.51011,-0.15378 -0.71966,-0.210618 -0.52048,-0.141174 -1.19221,-0.346665 -1.397,-0.427359 -0.0931,-0.0367 -0.26459,-0.08564 -0.381,-0.108765 -0.11642,-0.02312 -0.51647,-0.125934 -0.889,-0.228465 -0.37253,-0.102533 -0.84878,-0.21622 -1.05833,-0.252637 -0.20955,-0.03642 -0.89535,-0.164638 -1.524,-0.284932 -1.26537,-0.242128 -1.91092,-0.275205 -2.21283,-0.113378 -0.42464,0.227617 -0.66584,0.425132 -0.66584,0.54525 0,0.06879 -0.0758,0.221405 -0.16839,0.33914 -0.10398,0.132193 -0.15255,0.291115 -0.127,0.415522 0.0228,0.1108 0.0598,0.291287 0.0823,0.401082 0.0299,0.145802 0.14973,0.240237 0.4445,0.350254 0.22196,0.08284 0.46372,0.202563 0.53723,0.26604 0.0735,0.06348 0.3094,0.115413 0.52417,0.115413 0.21479,0 0.4107,0.03266 0.43537,0.07258 0.0247,0.03992 0.2405,0.09575 0.47963,0.124072 0.23912,0.02832 0.47835,0.08763 0.53163,0.131803 0.0846,0.07011 0.45836,0.143004 1.66321,0.324344 0.16298,0.02453 0.33443,0.07299 0.381,0.107675 0.0466,0.03469 0.25497,0.08912 0.46312,0.120946 0.20815,0.03183 0.39901,0.09111 0.42411,0.131731 0.0251,0.04062 0.36482,0.117559 0.75493,0.170972 0.3901,0.05341 0.79765,0.15502 0.90567,0.225794 0.10801,0.07077 0.23856,0.102612 0.29011,0.07075 0.0515,-0.03186 0.158,-0.0017 0.23656,0.06706 0.0786,0.06874 0.25713,0.144316 0.39683,0.167946 0.2944,0.0498 0.66826,0.183225 1.28592,0.458926 0.24159,0.107837 0.51557,0.196069 0.60884,0.196069 0.0933,0 0.19052,0.03388 0.21611,0.07529 0.0256,0.04141 0.15167,0.101526 0.28017,0.133596 0.12849,0.03207 0.29077,0.107374 0.36062,0.167341 0.0699,0.05997 0.23837,0.135578 0.37447,0.168023 0.13611,0.03244 0.59026,0.228062 1.00923,0.434705 0.41897,0.206643 0.85053,0.375714 0.95903,0.375714 0.1085,0 0.19727,0.03738 0.19727,0.08305 0,0.04568 0.0952,0.106959 0.21167,0.136179 0.11642,0.02922 0.21167,0.0792 0.21167,0.111079 0,0.03188 0.2102,0.129406 0.46712,0.216736 0.25692,0.08733 0.50924,0.209518 0.56071,0.271532 0.0515,0.06201 0.14416,0.112754 0.206,0.112754 0.0618,0 0.14289,0.05406 0.18013,0.120128 0.0372,0.06607 0.27148,0.200344 0.52054,0.298385 0.24907,0.09804 0.57651,0.272583 0.72766,0.387871 0.15115,0.115288 0.31295,0.209616 0.35954,0.209616 0.0466,0 0.15368,0.0762 0.23796,0.169333 0.0843,0.09313 0.19197,0.169333 0.23929,0.169333 0.0473,0 0.1462,0.05318 0.21972,0.118171 0.0735,0.06499 0.32323,0.181758 0.55492,0.259477 0.23169,0.07772 0.46077,0.174103 0.50908,0.214187 0.12749,0.105814 0.68187,0.156519 1.31196,0.119994 0.44853,-0.026 0.57597,-0.06692 0.69661,-0.223658 z M 119.07355,67.20067 c 0.13148,-0.131477 0.17242,-0.992617 0.0601,-1.263816 -0.1195,-0.288492 -0.61628,-0.708543 -0.92731,-0.784083 -1.11402,-0.270557 -1.96543,0.328062 -1.95052,1.371381 0.005,0.345672 0.0127,0.358655 0.0976,0.163769 0.076,-0.174418 0.0985,-0.185592 0.12784,-0.0635 0.0196,0.08149 0.09,0.148166 0.15644,0.148166 0.0664,0 0.1208,0.04035 0.1208,0.08966 0,0.04931 -0.0355,0.06774 -0.0788,0.04095 -0.0434,-0.02679 -0.10478,-0.0067 -0.13651,0.04464 -0.0375,0.06064 0.0157,0.08374 0.15171,0.06591 0.11518,-0.01509 0.26233,0.01593 0.32701,0.06894 0.30807,0.252484 1.82972,0.339976 2.05172,0.117971 z m -0.051,-6.883916 c 0.16329,-0.206813 0.18457,-1.024008 0.035,-1.346101 -0.1923,-0.414281 -0.62458,-0.756664 -1.02274,-0.810068 -0.47988,-0.06437 -1.13346,0.116868 -1.38553,0.384199 -0.38291,0.406083 -0.62318,1.20047 -0.36311,1.20047 0.0663,0 0.24435,0.104775 0.39571,0.232833 0.15137,0.128058 0.44956,0.275932 0.66266,0.328609 0.54878,0.135651 1.57394,0.141796 1.67796,0.01006 z m 40.95817,18.901834 c -0.0288,-0.04657 -0.012,-0.08467 0.0373,-0.08467 0.0493,0 0.0897,0.0381 0.0897,0.08467 0,0.04657 -0.0168,0.08467 -0.0373,0.08467 -0.0205,0 -0.0609,-0.0381 -0.0897,-0.08467 z m -17.399,-71.7126701 c 0,-0.04657 0.0403,-0.08467 0.0897,-0.08467 0.0493,0 0.0661,0.0381 0.0373,0.08467 -0.0288,0.04657 -0.0691,0.08467 -0.0897,0.08467 -0.0205,0 -0.0373,-0.0381 -0.0373,-0.08467 z m -0.11998,-0.41197 c -0.0365,-0.05901 -0.0435,-0.13016 -0.0155,-0.158107 0.0758,-0.07577 0.15839,0.03567 0.11747,0.158449 -0.0287,0.08604 -0.0486,0.08597 -0.10197,-3.38e-4 z"
       id="path37" />
  </g>
</svg>
