<?xml version="1.0" encoding="utf-8"?>
<!-- Generator: Adobe Illustrator 26.4.1, SVG Export Plug-In . SVG Version: 6.00 Build 0)  -->
<svg version="1.1" id="Calque_1" xmlns="http://www.w3.org/2000/svg" xmlns:xlink="http://www.w3.org/1999/xlink" x="0px" y="0px"
	 viewBox="0 0 566.93 566.93" style="enable-background:new 0 0 566.93 566.93;" xml:space="preserve">
<style type="text/css">
	.st0{fill:#007F7F;}
	.st1{fill:#575756;}
</style>
<g>
	<g>
		<g>
			<path class="st0" d="M172.81,148.78l-10.06,19.57c0,0-9.59-14.98-4.72-23.54c4.12-6.4,10.13-3.44,11-2.75
				C169.91,142.75,172.55,144.2,172.81,148.78"/>
			<path class="st0" d="M150.88,175.99l-16.63-32.21h-11.1l26.13,50.62C152.86,191.76,154.43,182.87,150.88,175.99"/>
		</g>
		<g>
			<path class="st1" d="M90.22,254.71v-42.49c0-0.85,0.4-1.27,1.21-1.27h6.55c0.77,0,1.15,0.42,1.15,1.27v42.49
				c0,0.81-0.38,1.21-1.15,1.21h-6.55C90.62,255.93,90.22,255.52,90.22,254.71z"/>
			<path class="st1" d="M108.95,212.28c0-0.36,0.11-0.68,0.33-0.94c0.22-0.26,0.56-0.39,1-0.39h7.09c0.32,0,0.66,0.07,1,0.21
				c0.34,0.14,0.6,0.37,0.76,0.7l19.94,28.67v-28.67c0.12-0.36,0.31-0.61,0.58-0.73c0.26-0.12,0.52-0.18,0.76-0.18h6.12
				c0.32,0,0.65,0.12,0.97,0.36c0.32,0.24,0.48,0.57,0.48,0.97v42.31c0,0.89-0.48,1.33-1.45,1.33h-6c-0.48,0-0.84-0.09-1.06-0.27
				c-0.22-0.18-0.46-0.41-0.7-0.7l-21.04-30.31v29.95c0.04,0.89-0.4,1.33-1.33,1.33h-6.12c-0.89,0-1.33-0.44-1.33-1.33V212.28z"/>
			<path class="st1" d="M156.05,249.08c-0.32-0.36-0.57-0.73-0.73-1.09c-0.16-0.36-0.02-0.77,0.42-1.21l4.06-4
				c0.36-0.32,0.72-0.43,1.06-0.33c0.34,0.1,0.7,0.31,1.06,0.64c0.61,0.61,1.28,1.22,2.03,1.85c0.75,0.63,1.56,1.19,2.43,1.7
				c0.87,0.51,1.81,0.91,2.82,1.21c1.01,0.3,2.08,0.45,3.21,0.45c1.21,0,2.28-0.16,3.21-0.48c0.93-0.32,1.73-0.76,2.39-1.3
				c0.67-0.55,1.17-1.17,1.52-1.88c0.34-0.71,0.52-1.44,0.52-2.21c0-0.97-0.29-1.79-0.88-2.45c-0.59-0.67-1.3-1.23-2.15-1.7
				c-0.85-0.46-1.77-0.85-2.76-1.15c-0.99-0.3-1.89-0.56-2.7-0.76c-4.89-1.45-8.62-3.24-11.18-5.36c-2.57-2.12-3.85-4.9-3.85-8.34
				c0-1.86,0.39-3.56,1.18-5.09c0.79-1.54,1.9-2.86,3.33-3.97c1.43-1.11,3.16-1.97,5.18-2.58c2.02-0.61,4.24-0.91,6.67-0.91
				c2.67,0,5.22,0.63,7.67,1.88c2.44,1.25,4.58,2.79,6.4,4.61c0.73,0.77,0.71,1.56-0.06,2.36l-3.33,3.58
				c-0.4,0.36-0.79,0.48-1.15,0.33c-0.36-0.14-0.75-0.37-1.15-0.7c-0.48-0.4-1.04-0.85-1.67-1.33c-0.63-0.48-1.31-0.94-2.06-1.36
				c-0.75-0.42-1.54-0.78-2.36-1.06c-0.83-0.28-1.69-0.42-2.58-0.42c-0.77,0-1.57,0.06-2.39,0.18c-0.83,0.12-1.58,0.35-2.24,0.7
				c-0.67,0.34-1.22,0.83-1.67,1.45c-0.44,0.63-0.67,1.47-0.67,2.52c0,0.77,0.21,1.43,0.64,2c0.42,0.57,1.03,1.06,1.82,1.49
				c0.79,0.42,1.72,0.82,2.79,1.18c1.07,0.36,2.25,0.73,3.55,1.09c2.06,0.61,4,1.28,5.82,2.03c1.82,0.75,3.4,1.67,4.76,2.76
				c1.35,1.09,2.43,2.39,3.24,3.88s1.21,3.29,1.21,5.4c0,2.1-0.47,4.01-1.39,5.73c-0.93,1.72-2.17,3.18-3.73,4.4
				c-1.56,1.21-3.35,2.14-5.4,2.79c-2.04,0.65-4.15,0.97-6.33,0.97c-3.15,0-6.18-0.69-9.09-2.06
				C160.59,253.1,158.11,251.3,156.05,249.08z"/>
			<path class="st1" d="M192.24,217.86v-5.76c0-0.77,0.38-1.15,1.15-1.15h31.83c0.81,0,1.21,0.38,1.21,1.15v5.76
				c0,0.81-0.4,1.21-1.21,1.21h-11.64v35.64c0,0.81-0.38,1.21-1.15,1.21h-6.55c-0.77,0-1.15-0.4-1.15-1.21v-35.64h-11.34
				C192.62,219.07,192.24,218.67,192.24,217.86z"/>
			<path class="st1" d="M232.91,254.71v-42.49c0-0.85,0.4-1.27,1.21-1.27h6.55c0.77,0,1.15,0.42,1.15,1.27v42.49
				c0,0.81-0.38,1.21-1.15,1.21h-6.55C233.32,255.93,232.91,255.52,232.91,254.71z"/>
			<path class="st1" d="M248.01,217.86v-5.76c0-0.77,0.38-1.15,1.15-1.15h31.83c0.81,0,1.21,0.38,1.21,1.15v5.76
				c0,0.81-0.4,1.21-1.21,1.21h-11.64v35.64c0,0.81-0.38,1.21-1.15,1.21h-6.55c-0.77,0-1.15-0.4-1.15-1.21v-35.64h-11.34
				C248.39,219.07,248.01,218.67,248.01,217.86z"/>
			<path class="st1" d="M296.93,212.28v25.88c0,1.41,0.23,2.75,0.7,4c0.46,1.25,1.12,2.34,1.97,3.27c0.85,0.93,1.87,1.67,3.06,2.21
				c1.19,0.55,2.49,0.82,3.91,0.82c1.41,0,2.71-0.27,3.88-0.82c1.17-0.55,2.18-1.28,3.03-2.21c0.85-0.93,1.51-2.02,1.97-3.27
				c0.46-1.25,0.7-2.59,0.7-4v-25.88c0-0.36,0.13-0.68,0.39-0.94c0.26-0.26,0.6-0.39,1-0.39h6c0.36,0,0.71,0.12,1.03,0.36
				c0.32,0.24,0.48,0.57,0.48,0.97v25.88c0,2.55-0.48,4.94-1.45,7.18c-0.97,2.24-2.29,4.2-3.97,5.88c-1.68,1.68-3.64,3-5.88,3.97
				c-2.24,0.97-4.64,1.45-7.18,1.45s-4.95-0.48-7.21-1.45c-2.26-0.97-4.23-2.29-5.91-3.97c-1.68-1.68-3-3.64-3.97-5.88
				s-1.45-4.64-1.45-7.18v-25.88c0-0.32,0.12-0.63,0.36-0.91c0.24-0.28,0.55-0.42,0.91-0.42h6.24c0.32,0,0.64,0.13,0.94,0.39
				C296.77,211.6,296.93,211.92,296.93,212.28z"/>
			<path class="st1" d="M330.63,217.86v-5.76c0-0.77,0.38-1.15,1.15-1.15h31.83c0.81,0,1.21,0.38,1.21,1.15v5.76
				c0,0.81-0.4,1.21-1.21,1.21h-11.64v35.64c0,0.81-0.38,1.21-1.15,1.21h-6.55c-0.77,0-1.15-0.4-1.15-1.21v-35.64h-11.34
				C331.01,219.07,330.63,218.67,330.63,217.86z"/>
			<path class="st1" d="M371.31,254.71v-42.56c0-0.81,0.38-1.21,1.15-1.21h29.64c0.81,0,1.21,0.4,1.21,1.21v5.88
				c0,0.81-0.4,1.21-1.21,1.21h-21.94v9.15h16.73c0.89,0,1.33,0.4,1.33,1.21v5.76c0,0.81-0.45,1.21-1.33,1.21h-16.73v11.09h22.49
				c0.85,0,1.27,0.4,1.27,1.21v5.82c0,0.81-0.42,1.21-1.27,1.21h-30.19C371.69,255.93,371.31,255.52,371.31,254.71z"/>
		</g>
	</g>
</g>
<g>
	<path class="st1" d="M93.11,323.17v-34.22c0-0.51,0.24-0.77,0.72-0.77h23.37c0.48,0,0.72,0.26,0.72,0.77v1.16
		c0,0.55-0.24,0.82-0.72,0.82h-21.4v14.51h17.16c0.48,0,0.72,0.26,0.72,0.77v1.3c0,0.45-0.24,0.68-0.72,0.68H95.81v14.99
		c0,0.51-0.26,0.77-0.77,0.77h-1.2C93.35,323.94,93.11,323.68,93.11,323.17z"/>
	<path class="st1" d="M117.93,306.11c0-2.54,0.48-4.92,1.45-7.16c0.96-2.23,2.27-4.18,3.93-5.86c1.65-1.67,3.6-2.99,5.83-3.95
		c2.23-0.96,4.62-1.45,7.16-1.45c2.51,0,4.88,0.48,7.11,1.45c2.23,0.96,4.18,2.28,5.83,3.95c1.65,1.67,2.96,3.62,3.93,5.86
		c0.96,2.23,1.45,4.62,1.45,7.16c0,2.54-0.48,4.92-1.45,7.13c-0.96,2.22-2.27,4.15-3.93,5.81c-1.66,1.65-3.6,2.96-5.83,3.93
		c-2.23,0.96-4.62,1.45-7.16,1.45c-2.54,0-4.92-0.48-7.13-1.45c-2.22-0.96-4.15-2.27-5.81-3.93s-2.96-3.59-3.93-5.81
		C118.41,311.03,117.93,308.65,117.93,306.11z M120.72,306.06c0,2.15,0.41,4.17,1.23,6.05c0.82,1.88,1.93,3.52,3.33,4.92
		s3.04,2.51,4.94,3.33c1.89,0.82,3.92,1.23,6.07,1.23c2.12,0,4.13-0.41,6.02-1.23c1.9-0.82,3.54-1.93,4.94-3.33
		c1.4-1.4,2.51-3.04,3.33-4.92c0.82-1.88,1.23-3.89,1.23-6.05c0-2.12-0.41-4.13-1.23-6.02c-0.82-1.9-1.93-3.54-3.33-4.94
		c-1.4-1.4-3.04-2.51-4.94-3.33c-1.9-0.82-3.9-1.23-6.02-1.23c-2.15,0-4.18,0.41-6.07,1.23c-1.9,0.82-3.54,1.93-4.94,3.33
		c-1.4,1.4-2.51,3.04-3.33,4.94C121.13,301.93,120.72,303.94,120.72,306.06z"/>
	<path class="st1" d="M175.47,288.18c1.54,0,2.99,0.3,4.36,0.89c1.36,0.6,2.55,1.4,3.54,2.41c0.99,1.01,1.78,2.2,2.36,3.57
		c0.58,1.36,0.87,2.82,0.87,4.36c0,2.28-0.61,4.34-1.83,6.17c-1.22,1.83-2.81,3.18-4.77,4.05l6.07,13.4
		c0.13,0.23,0.14,0.43,0.05,0.63c-0.1,0.19-0.29,0.29-0.58,0.29h-1.69c-0.26,0-0.47-0.14-0.63-0.43l-5.93-13.16
		c-0.32,0.06-0.64,0.12-0.96,0.17c-0.32,0.05-0.69,0.07-1.11,0.07h-11.76v12.48c0,0.58-0.29,0.87-0.87,0.87h-1.01
		c-0.58,0-0.87-0.29-0.87-0.87V289c0-0.55,0.29-0.82,0.87-0.82H175.47z M174.65,307.84c1.22,0,2.39-0.19,3.49-0.58
		c1.11-0.39,2.09-0.94,2.94-1.66c0.85-0.72,1.53-1.61,2.02-2.65c0.5-1.04,0.75-2.23,0.75-3.54c0-1.16-0.22-2.25-0.65-3.28
		c-0.43-1.03-1.04-1.93-1.81-2.7c-0.77-0.77-1.67-1.38-2.7-1.83c-1.03-0.45-2.14-0.68-3.33-0.68h-11.9v16.92H174.65z"/>
	<path class="st0" d="M208.24,322.98v-33.83c0-0.64,0.31-0.96,0.92-0.96h23.09c0.64,0,0.96,0.32,0.96,0.96v4.67
		c0,0.64-0.32,0.96-0.96,0.96h-16.97v9.45h12.97c0.61,0,0.92,0.32,0.92,0.96v4.43c0,0.64-0.31,0.96-0.92,0.96h-12.97v12.39
		c0,0.64-0.32,0.96-0.96,0.96h-5.16C208.55,323.94,208.24,323.62,208.24,322.98z"/>
	<path class="st0" d="M245.02,289.24v20.58c0,1.13,0.18,2.19,0.55,3.18s0.89,1.86,1.57,2.6c0.68,0.74,1.49,1.33,2.43,1.76
		c0.95,0.43,1.98,0.65,3.11,0.65c1.12,0,2.15-0.22,3.08-0.65c0.93-0.43,1.74-1.02,2.41-1.76c0.68-0.74,1.2-1.61,1.57-2.6
		s0.55-2.06,0.55-3.18v-20.58c0-0.29,0.1-0.54,0.31-0.75c0.21-0.21,0.47-0.31,0.8-0.31h4.77c0.29,0,0.56,0.1,0.82,0.29
		c0.26,0.19,0.39,0.45,0.39,0.77v20.58c0,2.02-0.39,3.93-1.16,5.71c-0.77,1.78-1.82,3.34-3.16,4.67c-1.33,1.33-2.89,2.39-4.67,3.16
		c-1.78,0.77-3.69,1.16-5.71,1.16s-3.94-0.39-5.74-1.16c-1.8-0.77-3.37-1.82-4.7-3.16c-1.33-1.33-2.39-2.89-3.16-4.67
		c-0.77-1.78-1.16-3.69-1.16-5.71v-20.58c0-0.26,0.1-0.5,0.29-0.72c0.19-0.23,0.43-0.34,0.72-0.34h4.96c0.26,0,0.51,0.1,0.75,0.31
		C244.9,288.7,245.02,288.95,245.02,289.24z"/>
	<path class="st0" d="M271.81,293.68v-4.58c0-0.61,0.3-0.92,0.92-0.92h25.3c0.64,0,0.96,0.31,0.96,0.92v4.58
		c0,0.64-0.32,0.96-0.96,0.96h-9.25v28.34c0,0.64-0.3,0.96-0.91,0.96h-5.21c-0.61,0-0.92-0.32-0.92-0.96v-28.34h-9.01
		C272.12,294.64,271.81,294.32,271.81,293.68z"/>
	<path class="st0" d="M310.71,289.24v20.58c0,1.13,0.18,2.19,0.55,3.18s0.89,1.86,1.57,2.6c0.68,0.74,1.49,1.33,2.43,1.76
		c0.95,0.43,1.98,0.65,3.11,0.65c1.12,0,2.15-0.22,3.08-0.65c0.93-0.43,1.74-1.02,2.41-1.76c0.68-0.74,1.2-1.61,1.57-2.6
		s0.55-2.06,0.55-3.18v-20.58c0-0.29,0.1-0.54,0.31-0.75c0.21-0.21,0.47-0.31,0.8-0.31h4.77c0.29,0,0.56,0.1,0.82,0.29
		c0.26,0.19,0.39,0.45,0.39,0.77v20.58c0,2.02-0.39,3.93-1.16,5.71c-0.77,1.78-1.82,3.34-3.16,4.67c-1.33,1.33-2.89,2.39-4.67,3.16
		c-1.78,0.77-3.69,1.16-5.71,1.16s-3.94-0.39-5.74-1.16c-1.8-0.77-3.37-1.82-4.7-3.16c-1.33-1.33-2.39-2.89-3.16-4.67
		c-0.77-1.78-1.16-3.69-1.16-5.71v-20.58c0-0.26,0.1-0.5,0.29-0.72c0.19-0.23,0.43-0.34,0.72-0.34h4.96c0.26,0,0.51,0.1,0.75,0.31
		C310.59,288.7,310.71,288.95,310.71,289.24z"/>
	<path class="st0" d="M340.39,322.98v-33.83c0-0.26,0.07-0.48,0.22-0.68c0.14-0.19,0.38-0.29,0.7-0.29h15.33
		c1.64,0,3.16,0.33,4.56,0.99c1.4,0.66,2.59,1.53,3.59,2.63c1,1.09,1.78,2.35,2.34,3.76c0.56,1.41,0.84,2.88,0.84,4.39
		c0,2.02-0.55,3.93-1.66,5.71c-1.11,1.78-2.58,3.2-4.41,4.27l6.55,13.01c0.13,0.23,0.14,0.45,0.03,0.68
		c-0.11,0.23-0.33,0.34-0.65,0.34h-6.22c-0.48,0-0.85-0.27-1.11-0.82l-5.73-11.57h-7.33v11.42c0,0.64-0.32,0.96-0.96,0.96h-5.16
		C340.7,323.94,340.39,323.62,340.39,322.98z M354.95,294.4h-7.52v10.8h7.52c1.67,0,3.06-0.51,4.17-1.52
		c1.11-1.01,1.66-2.3,1.66-3.88c0-0.77-0.14-1.49-0.43-2.14c-0.29-0.66-0.7-1.23-1.23-1.71c-0.53-0.48-1.15-0.86-1.86-1.13
		C356.56,294.54,355.78,294.4,354.95,294.4z"/>
	<path class="st0" d="M372.73,322.98v-33.83c0-0.64,0.31-0.96,0.92-0.96h23.57c0.64,0,0.96,0.32,0.96,0.96v4.67
		c0,0.64-0.32,0.96-0.96,0.96h-17.45v7.28h13.3c0.71,0,1.06,0.32,1.06,0.96v4.58c0,0.64-0.35,0.96-1.06,0.96h-13.3v8.82h17.88
		c0.68,0,1.01,0.32,1.01,0.96v4.63c0,0.64-0.34,0.96-1.01,0.96h-24C373.04,323.94,372.73,323.62,372.73,322.98z"/>
	<path class="st0" d="M90.22,345.48v-4.58c0-0.61,0.3-0.92,0.92-0.92h25.3c0.64,0,0.96,0.31,0.96,0.92v4.58
		c0,0.64-0.32,0.96-0.96,0.96h-9.25v28.34c0,0.64-0.3,0.96-0.91,0.96h-5.21c-0.61,0-0.92-0.32-0.92-0.96v-28.34h-9.01
		C90.52,346.45,90.22,346.13,90.22,345.48z"/>
	<path class="st0" d="M122.55,374.79v-33.83c0-0.64,0.31-0.96,0.92-0.96h23.57c0.64,0,0.96,0.32,0.96,0.96v4.67
		c0,0.64-0.32,0.96-0.96,0.96h-17.45v7.28h13.3c0.71,0,1.06,0.32,1.06,0.96v4.58c0,0.64-0.35,0.96-1.06,0.96h-13.3v8.82h17.88
		c0.68,0,1.01,0.32,1.01,0.96v4.63c0,0.64-0.34,0.96-1.01,0.96h-24C122.86,375.75,122.55,375.43,122.55,374.79z"/>
	<path class="st0" d="M175.52,367.41c0.64-0.48,1.16-0.48,1.54,0l2.41,4.1c0.26,0.29,0.35,0.54,0.29,0.75
		c-0.06,0.21-0.24,0.43-0.53,0.65c-1.38,1.03-2.92,1.85-4.63,2.46c-1.7,0.61-3.65,0.91-5.83,0.91c-2.54,0-4.93-0.48-7.18-1.45
		c-2.25-0.96-4.22-2.28-5.9-3.95c-1.69-1.67-3.01-3.63-3.98-5.88c-0.96-2.25-1.45-4.64-1.45-7.18c0-2.57,0.48-4.96,1.45-7.18
		c0.96-2.22,2.29-4.16,3.98-5.83c1.69-1.67,3.65-2.98,5.9-3.93c2.25-0.95,4.64-1.42,7.18-1.42c2.18,0,4.13,0.3,5.83,0.89
		c1.7,0.59,3.26,1.41,4.67,2.43c0.26,0.23,0.39,0.45,0.39,0.67c0,0.23-0.03,0.4-0.1,0.53l-2.55,4.34c-0.29,0.39-0.74,0.4-1.35,0.05
		c-1.13-0.71-2.23-1.25-3.3-1.64c-1.08-0.39-2.27-0.58-3.59-0.58c-1.64,0-3.15,0.3-4.53,0.89c-1.38,0.59-2.58,1.42-3.59,2.48
		c-1.01,1.06-1.81,2.3-2.39,3.71c-0.58,1.41-0.87,2.94-0.87,4.58c0,1.64,0.29,3.17,0.87,4.6c0.58,1.43,1.37,2.68,2.39,3.76
		c1.01,1.08,2.21,1.93,3.59,2.55c1.38,0.63,2.89,0.94,4.53,0.94c1.32,0,2.56-0.22,3.73-0.65
		C173.68,368.59,174.68,368.06,175.52,367.41z"/>
	<path class="st0" d="M209.11,374.79v-14.46h-16.05v14.46c0,0.64-0.35,0.96-1.06,0.96h-5.06c-0.61,0-0.92-0.32-0.92-0.96V341
		c0-0.29,0.07-0.53,0.22-0.72c0.14-0.19,0.38-0.29,0.7-0.29h5.21c0.19,0,0.39,0.06,0.6,0.19c0.21,0.13,0.31,0.39,0.31,0.77v12.58
		h16.05V341c0-0.29,0.07-0.53,0.22-0.72c0.14-0.19,0.38-0.29,0.7-0.29h5.21c0.19,0,0.39,0.06,0.58,0.19
		c0.19,0.13,0.29,0.39,0.29,0.77v33.83c0,0.64-0.34,0.96-1.01,0.96h-5.06C209.42,375.75,209.11,375.43,209.11,374.79z"/>
	<path class="st0" d="M223.28,341.05c0-0.29,0.09-0.54,0.26-0.75c0.18-0.21,0.44-0.31,0.8-0.31h5.64c0.26,0,0.52,0.06,0.8,0.17
		c0.27,0.11,0.47,0.3,0.6,0.55l15.86,22.8v-22.8c0.1-0.29,0.25-0.48,0.46-0.58c0.21-0.1,0.41-0.14,0.6-0.14h4.87
		c0.26,0,0.51,0.1,0.77,0.29c0.26,0.19,0.39,0.45,0.39,0.77v33.64c0,0.71-0.39,1.06-1.16,1.06h-4.77c-0.39,0-0.67-0.07-0.84-0.22
		c-0.18-0.15-0.36-0.33-0.55-0.55l-16.72-24.1v23.81c0.03,0.71-0.32,1.06-1.06,1.06h-4.87c-0.71,0-1.06-0.35-1.06-1.06V341.05z"/>
	<path class="st0" d="M296.49,357.87c0,2.54-0.48,4.92-1.45,7.16c-0.96,2.23-2.28,4.18-3.95,5.83c-1.67,1.65-3.63,2.96-5.88,3.93
		c-2.25,0.96-4.64,1.45-7.18,1.45c-2.54,0-4.92-0.48-7.16-1.45c-2.23-0.96-4.18-2.27-5.83-3.93c-1.66-1.65-2.96-3.6-3.9-5.83
		c-0.95-2.23-1.42-4.62-1.42-7.16c0-2.57,0.47-4.97,1.42-7.21c0.95-2.23,2.25-4.18,3.9-5.83c1.65-1.65,3.6-2.96,5.83-3.93
		c2.23-0.96,4.62-1.45,7.16-1.45c2.54,0,4.93,0.48,7.18,1.45c2.25,0.96,4.21,2.27,5.88,3.93c1.67,1.66,2.99,3.6,3.95,5.83
		C296.01,352.9,296.49,355.3,296.49,357.87z M289.4,357.87c0-1.64-0.29-3.16-0.87-4.58c-0.58-1.41-1.37-2.64-2.39-3.69
		c-1.01-1.04-2.21-1.87-3.59-2.48c-1.38-0.61-2.89-0.92-4.53-0.92c-1.61,0-3.1,0.31-4.48,0.92s-2.58,1.44-3.59,2.48
		c-1.01,1.05-1.8,2.27-2.36,3.69c-0.56,1.41-0.84,2.94-0.84,4.58c0,1.61,0.28,3.12,0.84,4.53c0.56,1.41,1.35,2.64,2.36,3.69
		c1.01,1.04,2.21,1.87,3.59,2.48s2.88,0.91,4.48,0.91c1.64,0,3.15-0.3,4.53-0.91c1.38-0.61,2.58-1.44,3.59-2.48
		c1.01-1.04,1.81-2.27,2.39-3.69C289.11,360.99,289.4,359.48,289.4,357.87z"/>
	<path class="st0" d="M302.61,341c0-0.29,0.1-0.54,0.29-0.75c0.19-0.21,0.46-0.31,0.82-0.31h4.92c0.68,0,1.03,0.35,1.06,1.06v28.2
		h14.07c0.29,0,0.54,0.1,0.75,0.29c0.21,0.19,0.31,0.47,0.31,0.82v4.39c0,0.68-0.35,1.03-1.06,1.06h-20.1
		c-0.71,0-1.06-0.35-1.06-1.06V341z"/>
	<path class="st0" d="M363.19,357.87c0,2.54-0.48,4.92-1.45,7.16c-0.96,2.23-2.28,4.18-3.95,5.83c-1.67,1.65-3.63,2.96-5.88,3.93
		c-2.25,0.96-4.64,1.45-7.18,1.45c-2.54,0-4.92-0.48-7.16-1.45c-2.23-0.96-4.18-2.27-5.83-3.93c-1.66-1.65-2.96-3.6-3.9-5.83
		c-0.95-2.23-1.42-4.62-1.42-7.16c0-2.57,0.47-4.97,1.42-7.21c0.95-2.23,2.25-4.18,3.9-5.83c1.65-1.65,3.6-2.96,5.83-3.93
		c2.23-0.96,4.62-1.45,7.16-1.45c2.54,0,4.93,0.48,7.18,1.45c2.25,0.96,4.21,2.27,5.88,3.93c1.67,1.66,2.99,3.6,3.95,5.83
		C362.71,352.9,363.19,355.3,363.19,357.87z M356.1,357.87c0-1.64-0.29-3.16-0.87-4.58c-0.58-1.41-1.37-2.64-2.39-3.69
		c-1.01-1.04-2.21-1.87-3.59-2.48c-1.38-0.61-2.89-0.92-4.53-0.92c-1.61,0-3.1,0.31-4.48,0.92s-2.58,1.44-3.59,2.48
		c-1.01,1.05-1.8,2.27-2.36,3.69c-0.56,1.41-0.84,2.94-0.84,4.58c0,1.61,0.28,3.12,0.84,4.53c0.56,1.41,1.35,2.64,2.36,3.69
		c1.01,1.04,2.21,1.87,3.59,2.48s2.88,0.91,4.48,0.91c1.64,0,3.15-0.3,4.53-0.91c1.38-0.61,2.58-1.44,3.59-2.48
		c1.01-1.04,1.81-2.27,2.39-3.69C355.81,360.99,356.1,359.48,356.1,357.87z"/>
	<path class="st0" d="M386.03,369.73c0.93,0,1.89-0.13,2.87-0.39c0.98-0.26,1.86-0.68,2.63-1.25v-7.37c0-0.64,0.32-0.96,0.96-0.96
		h4.29c0.23,0,0.43,0.06,0.63,0.19c0.19,0.13,0.29,0.39,0.29,0.77v10.94c0,0.42-0.16,0.77-0.48,1.06c-1.45,1-3.13,1.83-5.04,2.51
		c-1.91,0.67-3.96,1.01-6.14,1.01c-2.54,0-4.93-0.48-7.18-1.45c-2.25-0.96-4.22-2.28-5.9-3.95c-1.69-1.67-3.01-3.63-3.98-5.88
		c-0.96-2.25-1.45-4.64-1.45-7.18c0-2.54,0.48-4.92,1.45-7.16c0.96-2.23,2.27-4.18,3.93-5.83c1.65-1.65,3.61-2.96,5.86-3.9
		c2.25-0.95,4.64-1.42,7.18-1.42c2.18,0,4.14,0.31,5.88,0.94s3.37,1.52,4.92,2.67c0.26,0.19,0.4,0.4,0.43,0.63
		c0.03,0.23-0.03,0.43-0.19,0.63l-2.84,4.1c-0.16,0.16-0.35,0.27-0.58,0.34c-0.23,0.06-0.48,0-0.77-0.19
		c-0.93-0.71-1.95-1.28-3.06-1.71c-1.11-0.43-2.34-0.65-3.69-0.65c-1.67,0-3.22,0.3-4.65,0.89c-1.43,0.6-2.67,1.41-3.71,2.46
		c-1.04,1.04-1.86,2.27-2.46,3.66c-0.59,1.4-0.89,2.92-0.89,4.56c0,1.64,0.3,3.19,0.92,4.65c0.61,1.46,1.44,2.74,2.48,3.83
		c1.04,1.09,2.28,1.95,3.71,2.58C382.86,369.46,384.39,369.76,386.03,369.73z"/>
	<path class="st0" d="M404.3,374.79V341c0-0.67,0.32-1.01,0.96-1.01h5.21c0.61,0,0.91,0.34,0.91,1.01v33.79
		c0,0.64-0.31,0.96-0.91,0.96h-5.21C404.62,375.75,404.3,375.43,404.3,374.79z"/>
	<path class="st0" d="M419.19,374.79v-33.83c0-0.64,0.31-0.96,0.92-0.96h23.57c0.64,0,0.96,0.32,0.96,0.96v4.67
		c0,0.64-0.32,0.96-0.96,0.96h-17.45v7.28h13.3c0.71,0,1.06,0.32,1.06,0.96v4.58c0,0.64-0.35,0.96-1.06,0.96h-13.3v8.82h17.88
		c0.68,0,1.01,0.32,1.01,0.96v4.63c0,0.64-0.34,0.96-1.01,0.96h-24C419.49,375.75,419.19,375.43,419.19,374.79z"/>
	<path class="st0" d="M449.36,370.3c-0.26-0.29-0.45-0.58-0.58-0.87c-0.13-0.29-0.02-0.61,0.34-0.96l3.23-3.18
		c0.29-0.26,0.57-0.34,0.84-0.26c0.27,0.08,0.55,0.25,0.84,0.51c0.48,0.48,1.02,0.97,1.61,1.47s1.24,0.95,1.93,1.35
		c0.69,0.4,1.44,0.72,2.24,0.96c0.8,0.24,1.65,0.36,2.55,0.36c0.96,0,1.81-0.13,2.55-0.39c0.74-0.26,1.37-0.6,1.9-1.04
		c0.53-0.43,0.93-0.93,1.21-1.49c0.27-0.56,0.41-1.15,0.41-1.76c0-0.77-0.23-1.42-0.7-1.95c-0.47-0.53-1.04-0.98-1.71-1.35
		c-0.68-0.37-1.41-0.68-2.19-0.91c-0.79-0.24-1.5-0.44-2.14-0.6c-3.89-1.16-6.85-2.58-8.89-4.27c-2.04-1.69-3.06-3.9-3.06-6.63
		c0-1.48,0.31-2.83,0.94-4.05s1.51-2.27,2.65-3.16c1.14-0.88,2.51-1.57,4.12-2.05c1.61-0.48,3.37-0.72,5.3-0.72
		c2.12,0,4.15,0.5,6.1,1.49c1.94,1,3.64,2.22,5.08,3.66c0.58,0.61,0.56,1.24-0.05,1.88l-2.65,2.84c-0.32,0.29-0.63,0.38-0.92,0.26
		c-0.29-0.11-0.59-0.3-0.92-0.55c-0.39-0.32-0.83-0.68-1.33-1.06c-0.5-0.39-1.04-0.75-1.64-1.08c-0.59-0.34-1.22-0.62-1.88-0.84
		s-1.34-0.34-2.05-0.34c-0.61,0-1.25,0.05-1.9,0.15c-0.66,0.1-1.25,0.28-1.78,0.55c-0.53,0.27-0.97,0.66-1.33,1.16
		c-0.35,0.5-0.53,1.16-0.53,2c0,0.61,0.17,1.14,0.51,1.59c0.34,0.45,0.82,0.84,1.45,1.18c0.63,0.34,1.37,0.65,2.22,0.94
		c0.85,0.29,1.79,0.58,2.82,0.87c1.64,0.48,3.18,1.02,4.63,1.61c1.45,0.6,2.71,1.33,3.78,2.19c1.08,0.87,1.93,1.9,2.58,3.08
		c0.64,1.19,0.96,2.62,0.96,4.29c0,1.67-0.37,3.19-1.11,4.55c-0.74,1.37-1.73,2.53-2.96,3.49s-2.67,1.7-4.29,2.22
		c-1.62,0.51-3.3,0.77-5.04,0.77c-2.51,0-4.92-0.55-7.23-1.64C452.97,373.5,451,372.07,449.36,370.3z"/>
</g>
<g>
	<path class="st1" d="M105.79,416.86c0,0.84-0.11,1.65-0.33,2.42c-0.22,0.77-0.53,1.49-0.93,2.16c-0.4,0.67-0.87,1.27-1.43,1.81
		c-0.56,0.54-1.17,1.01-1.85,1.39c-0.68,0.38-1.41,0.68-2.19,0.89c-0.78,0.21-1.6,0.32-2.45,0.32h-5.83c-0.15,0-0.28-0.03-0.39-0.1
		c-0.11-0.07-0.17-0.2-0.17-0.41V408.4c0-0.38,0.19-0.57,0.56-0.57h5.83c1.29,0,2.49,0.23,3.6,0.7c1.11,0.47,2.09,1.11,2.91,1.92
		c0.83,0.81,1.48,1.77,1.95,2.87S105.79,415.59,105.79,416.86z M93.73,411.16v11.38h1.15c0.61,0,1.22-0.01,1.82-0.04
		c0.8-0.02,1.54-0.19,2.22-0.49s1.27-0.71,1.77-1.22s0.89-1.11,1.17-1.79c0.28-0.69,0.42-1.42,0.42-2.21c0-0.83-0.15-1.6-0.45-2.29
		c-0.3-0.69-0.72-1.29-1.25-1.78c-0.53-0.49-1.14-0.88-1.85-1.15c-0.7-0.27-1.45-0.41-2.25-0.41H93.73z"/>
	<path class="st1" d="M109.09,408.41c0-0.39,0.18-0.58,0.54-0.58h11.71c0.21,0,0.36,0.06,0.45,0.18c0.09,0.12,0.13,0.26,0.13,0.44
		v2.14c0,0.15-0.05,0.28-0.15,0.39c-0.1,0.11-0.25,0.17-0.46,0.17h-8.63v3.68h6.66c0.16-0.02,0.29,0.02,0.39,0.1
		c0.1,0.08,0.15,0.23,0.15,0.43v2.2c0,0.14-0.04,0.27-0.12,0.39c-0.08,0.11-0.21,0.17-0.39,0.17h-6.68v4.41h8.95
		c0.23,0,0.38,0.05,0.45,0.15c0.07,0.1,0.11,0.25,0.11,0.45v2.22c0,0.34-0.18,0.51-0.54,0.51h-12.02c-0.15,0-0.27-0.04-0.38-0.12
		c-0.1-0.08-0.16-0.21-0.16-0.39V408.41z"/>
	<path class="st1" d="M138.05,425.51c-0.09-0.17-0.17-0.34-0.24-0.52c-0.07-0.17-0.15-0.35-0.22-0.54l-6.38-15.97
		c0-0.02-0.01-0.06-0.02-0.1c-0.01-0.05-0.02-0.1-0.02-0.16c0-0.26,0.17-0.39,0.5-0.39h2.6c0.31,0,0.52,0.15,0.63,0.46
		c0.18,0.51,0.39,1.11,0.65,1.79s0.53,1.41,0.81,2.17c0.29,0.77,0.58,1.55,0.89,2.35c0.3,0.8,0.6,1.58,0.89,2.33
		c0.29,0.75,0.55,1.46,0.8,2.12c0.25,0.66,0.46,1.23,0.63,1.69c0.18-0.47,0.39-1.03,0.63-1.69c0.24-0.66,0.5-1.37,0.78-2.12
		c0.28-0.75,0.57-1.53,0.87-2.33c0.3-0.8,0.59-1.59,0.87-2.35c0.28-0.76,0.55-1.49,0.81-2.17s0.47-1.28,0.66-1.79
		c0.11-0.31,0.33-0.46,0.65-0.46h2.55c0.36,0,0.55,0.13,0.55,0.4c0,0.06-0.01,0.11-0.02,0.16c-0.01,0.05-0.02,0.08-0.02,0.1
		l-6.37,15.97c-0.07,0.16-0.13,0.33-0.19,0.49s-0.14,0.33-0.22,0.48c-0.11,0.21-0.26,0.34-0.45,0.38c-0.19,0.04-0.41,0.06-0.67,0.06
		h-1.4c-0.19,0-0.32-0.04-0.4-0.11C138.15,425.68,138.09,425.6,138.05,425.51z"/>
	<path class="st1" d="M150.38,408.36c0-0.14,0.05-0.27,0.13-0.38s0.22-0.16,0.4-0.16h2.41c0.14,0,0.27,0.05,0.39,0.15
		c0.12,0.1,0.18,0.23,0.18,0.39v16.97c0,0.36-0.19,0.53-0.57,0.53h-2.41c-0.36,0-0.53-0.18-0.53-0.53V408.36z"/>
	<path class="st1" d="M157.85,408.37c0-0.15,0.05-0.28,0.14-0.39s0.23-0.16,0.4-0.16h2.79c0.11,0,0.22,0.03,0.32,0.08
		c0.1,0.05,0.19,0.14,0.27,0.25c1.38,1.98,2.76,3.94,4.12,5.88s2.73,3.91,4.12,5.88v-11.64c0.02-0.15,0.09-0.26,0.18-0.34
		s0.21-0.12,0.35-0.12h2.34c0.16,0,0.3,0.05,0.42,0.15c0.12,0.1,0.18,0.23,0.18,0.39v17c0,0.33-0.19,0.5-0.57,0.5h-2.64
		c-0.18,0-0.34-0.11-0.5-0.33c-1.43-2.06-2.84-4.13-4.26-6.19c-1.41-2.06-2.83-4.13-4.24-6.2v12.18c0,0.18-0.04,0.31-0.13,0.4
		c-0.09,0.09-0.23,0.13-0.43,0.13h-2.33c-0.19,0-0.32-0.05-0.41-0.14c-0.09-0.09-0.13-0.22-0.13-0.38V408.37z"/>
	<path class="st1" d="M190.97,409.14c0.1,0.06,0.18,0.12,0.24,0.21s0.1,0.18,0.1,0.29c0,0.09-0.02,0.18-0.07,0.28l-1.18,2
		c-0.14,0.19-0.28,0.28-0.44,0.28c-0.05,0-0.1-0.01-0.17-0.03c-0.07-0.02-0.13-0.05-0.19-0.09c-0.51-0.37-1.06-0.65-1.64-0.85
		c-0.58-0.2-1.2-0.3-1.86-0.3c-0.82,0-1.58,0.16-2.27,0.47c-0.69,0.31-1.28,0.74-1.79,1.27c-0.5,0.54-0.89,1.16-1.17,1.88
		c-0.28,0.72-0.42,1.49-0.42,2.32c0,0.82,0.14,1.59,0.42,2.3c0.28,0.72,0.67,1.34,1.17,1.88c0.5,0.53,1.1,0.95,1.79,1.26
		c0.69,0.31,1.45,0.46,2.27,0.46c0.66,0,1.28-0.1,1.88-0.3c0.6-0.2,1.14-0.49,1.64-0.85c0.07-0.05,0.13-0.08,0.2-0.1
		c0.07-0.02,0.13-0.03,0.18-0.04c0.14,0,0.28,0.09,0.43,0.27l1.2,2.03c0.05,0.1,0.07,0.19,0.07,0.27c0,0.11-0.04,0.21-0.1,0.28
		c-0.07,0.07-0.15,0.14-0.24,0.21c-0.76,0.51-1.58,0.91-2.46,1.18c-0.88,0.28-1.8,0.42-2.78,0.42c-0.86,0-1.68-0.11-2.47-0.33
		c-0.79-0.22-1.53-0.53-2.22-0.94s-1.31-0.89-1.88-1.45c-0.56-0.56-1.05-1.19-1.45-1.87c-0.41-0.68-0.72-1.42-0.94-2.21
		c-0.22-0.79-0.33-1.61-0.33-2.47c0-0.86,0.11-1.68,0.33-2.47c0.22-0.79,0.53-1.53,0.94-2.22c0.4-0.69,0.89-1.32,1.45-1.89
		c0.56-0.57,1.19-1.05,1.88-1.45s1.43-0.71,2.22-0.94c0.79-0.22,1.61-0.33,2.47-0.33c0.96,0,1.88,0.14,2.74,0.41
		C189.4,408.24,190.21,408.63,190.97,409.14z"/>
	<path class="st1" d="M194.61,408.36c0-0.14,0.05-0.27,0.13-0.38c0.09-0.1,0.22-0.16,0.4-0.16h2.41c0.14,0,0.27,0.05,0.39,0.15
		c0.12,0.1,0.18,0.23,0.18,0.39v16.97c0,0.36-0.19,0.53-0.57,0.53h-2.41c-0.36,0-0.53-0.18-0.53-0.53V408.36z"/>
	<path class="st1" d="M222.26,408.36c0-0.14,0.05-0.27,0.15-0.38s0.23-0.16,0.39-0.16h1.23c0.15,0,0.28,0.05,0.4,0.15
		c0.12,0.1,0.18,0.23,0.18,0.39v16.97c0,0.36-0.19,0.53-0.58,0.53h-1.23c-0.36,0-0.54-0.18-0.54-0.53v-7.8h-10.24v7.8
		c0,0.36-0.19,0.53-0.58,0.53h-1.23c-0.36,0-0.54-0.18-0.54-0.53v-16.97c0-0.14,0.05-0.27,0.15-0.38s0.23-0.16,0.39-0.16h1.25
		c0.15,0,0.28,0.05,0.39,0.16c0.11,0.1,0.17,0.23,0.17,0.38v6.81h10.24V408.36z"/>
	<path class="st1" d="M228.46,408.36c0-0.14,0.05-0.27,0.14-0.38c0.09-0.1,0.23-0.16,0.4-0.16h1.26c0.15,0,0.28,0.05,0.39,0.15
		c0.11,0.1,0.17,0.23,0.17,0.39v16.97c0,0.36-0.19,0.53-0.56,0.53H229c-0.36,0-0.54-0.18-0.54-0.53V408.36z"/>
	<path class="st1" d="M246.89,418.43c0-0.36,0.18-0.53,0.54-0.53h1.25c0.15,0,0.28,0.05,0.39,0.14c0.11,0.09,0.17,0.23,0.17,0.4
		v5.43c0,0.1-0.02,0.19-0.06,0.27c-0.04,0.08-0.11,0.16-0.21,0.21l-0.1,0.07c-0.76,0.55-1.6,0.97-2.51,1.27
		c-0.92,0.29-1.9,0.44-2.96,0.44c-0.86,0-1.68-0.11-2.47-0.33c-0.79-0.22-1.53-0.53-2.21-0.94s-1.31-0.89-1.87-1.45
		c-0.56-0.56-1.04-1.19-1.45-1.87c-0.4-0.68-0.71-1.42-0.93-2.21c-0.22-0.79-0.33-1.61-0.33-2.47c0-0.85,0.11-1.67,0.33-2.45
		c0.22-0.78,0.53-1.52,0.94-2.21c0.41-0.69,0.89-1.32,1.45-1.88c0.56-0.57,1.19-1.05,1.87-1.46c0.68-0.4,1.42-0.72,2.21-0.94
		c0.79-0.22,1.61-0.33,2.47-0.33c1,0,1.96,0.15,2.88,0.46c0.92,0.3,1.79,0.74,2.59,1.3c0.09,0.07,0.16,0.14,0.22,0.23
		c0.06,0.09,0.09,0.17,0.09,0.26c0,0.11-0.03,0.21-0.1,0.29l-0.64,1.07c-0.14,0.19-0.28,0.29-0.43,0.29c-0.06,0-0.12-0.02-0.19-0.04
		c-0.07-0.03-0.15-0.08-0.24-0.14c-0.58-0.41-1.22-0.74-1.9-0.98c-0.68-0.24-1.42-0.36-2.19-0.36c-1,0-1.93,0.19-2.79,0.57
		c-0.85,0.38-1.6,0.89-2.22,1.53c-0.63,0.64-1.12,1.38-1.47,2.21c-0.36,0.83-0.53,1.7-0.53,2.61c0,0.96,0.18,1.86,0.55,2.7
		c0.36,0.84,0.86,1.57,1.48,2.19c0.62,0.62,1.35,1.11,2.18,1.46c0.83,0.36,1.71,0.53,2.65,0.53c0.59,0,1.18-0.09,1.77-0.28
		c0.59-0.19,1.18-0.42,1.79-0.67V418.43z"/>
	<path class="st1" d="M265.22,408.36c0-0.14,0.05-0.27,0.15-0.38s0.23-0.16,0.39-0.16h1.23c0.15,0,0.28,0.05,0.4,0.15
		c0.12,0.1,0.18,0.23,0.18,0.39v16.97c0,0.36-0.19,0.53-0.58,0.53h-1.23c-0.36,0-0.54-0.18-0.54-0.53v-7.8h-10.24v7.8
		c0,0.36-0.19,0.53-0.58,0.53h-1.23c-0.36,0-0.54-0.18-0.54-0.53v-16.97c0-0.14,0.05-0.27,0.15-0.38s0.23-0.16,0.39-0.16h1.25
		c0.15,0,0.28,0.05,0.39,0.16c0.11,0.1,0.17,0.23,0.17,0.38v6.81h10.24V408.36z"/>
	<path class="st1" d="M283.61,407.83c0.37,0,0.56,0.19,0.56,0.58v1.2c0,0.15-0.05,0.29-0.14,0.4c-0.09,0.11-0.24,0.17-0.44,0.17
		h-9.79v4.99h7.7c0.14,0,0.27,0.04,0.38,0.13s0.16,0.23,0.16,0.43v1.24c0,0.14-0.05,0.27-0.13,0.39c-0.09,0.11-0.22,0.17-0.4,0.17
		h-7.7v5.98h9.84c0.37,0,0.56,0.19,0.56,0.57v1.25c0,0.36-0.18,0.53-0.54,0.53h-11.68c-0.36,0-0.54-0.17-0.54-0.51v-16.97
		c0-0.37,0.18-0.56,0.54-0.56H283.61z"/>
	<path class="st1" d="M287.05,408.41c0-0.39,0.18-0.58,0.54-0.58h7.01c0.81,0,1.56,0.15,2.26,0.46c0.7,0.3,1.3,0.72,1.82,1.24
		s0.93,1.13,1.22,1.83c0.29,0.7,0.44,1.45,0.44,2.24c0,0.57-0.08,1.11-0.24,1.63c-0.16,0.52-0.38,1.01-0.66,1.45
		c-0.28,0.44-0.62,0.84-1.02,1.2s-0.84,0.65-1.32,0.88l3.21,6.57v0.16c0,0.25-0.15,0.38-0.45,0.38h-1.47
		c-0.25,0-0.45-0.15-0.58-0.45l-2.92-6.12c-0.07,0.01-0.13,0.01-0.21,0.01s-0.19,0-0.33,0.01c-0.14,0-0.33,0.01-0.57,0.01
		s-0.54,0-0.93,0s-0.86,0-1.42,0c-0.56,0-1.23,0-2.03,0v6.01c0,0.36-0.19,0.53-0.56,0.53h-1.26c-0.36,0-0.54-0.18-0.54-0.53V408.41z
		 M298,413.57c0-0.44-0.09-0.87-0.26-1.29s-0.41-0.78-0.72-1.09c-0.3-0.32-0.66-0.57-1.08-0.76c-0.42-0.19-0.87-0.28-1.35-0.28
		h-5.19V417h5.23c0.48,0,0.92-0.09,1.34-0.28c0.41-0.19,0.77-0.44,1.07-0.75c0.3-0.32,0.53-0.68,0.7-1.09S298,414.03,298,413.57z"/>
	<path class="st1" d="M323.53,407.83c0.37,0,0.56,0.19,0.56,0.58v1.2c0,0.15-0.05,0.29-0.14,0.4c-0.09,0.11-0.24,0.17-0.44,0.17
		h-9.79v4.99h7.7c0.14,0,0.27,0.04,0.38,0.13c0.1,0.08,0.16,0.23,0.16,0.43v1.24c0,0.14-0.05,0.27-0.13,0.39
		c-0.09,0.11-0.22,0.17-0.4,0.17h-7.7v5.98h9.84c0.37,0,0.56,0.19,0.56,0.57v1.25c0,0.36-0.18,0.53-0.54,0.53H311.9
		c-0.36,0-0.54-0.17-0.54-0.51v-16.97c0-0.37,0.18-0.56,0.54-0.56H323.53z"/>
	<path class="st1" d="M326.96,408.41c0-0.39,0.19-0.58,0.56-0.58h5.67c0.87,0,1.69,0.1,2.48,0.32c0.79,0.21,1.51,0.51,2.19,0.9
		c0.67,0.39,1.28,0.86,1.82,1.41c0.54,0.55,1.01,1.16,1.39,1.83c0.39,0.67,0.68,1.39,0.89,2.16c0.21,0.77,0.32,1.58,0.32,2.42
		c0,0.83-0.11,1.63-0.32,2.4c-0.22,0.77-0.52,1.48-0.91,2.15s-0.86,1.28-1.42,1.82c-0.55,0.55-1.16,1.01-1.83,1.4
		c-0.67,0.39-1.4,0.69-2.17,0.91c-0.78,0.22-1.59,0.32-2.43,0.32h-5.67c-0.15,0-0.27-0.03-0.39-0.1c-0.11-0.07-0.17-0.21-0.17-0.41
		V408.41z M333.13,423.54c0.99,0,1.9-0.18,2.73-0.55c0.83-0.36,1.55-0.86,2.15-1.47c0.6-0.62,1.08-1.34,1.42-2.17
		c0.34-0.83,0.51-1.7,0.51-2.62c0-0.99-0.18-1.89-0.53-2.7c-0.36-0.81-0.84-1.5-1.45-2.08c-0.61-0.58-1.33-1.02-2.14-1.34
		c-0.82-0.31-1.69-0.47-2.62-0.47h-3.9v13.39H333.13z"/>
	<path class="st1" d="M347.85,418.41c0,0.77,0.11,1.48,0.33,2.15c0.22,0.66,0.55,1.24,0.98,1.73c0.43,0.49,0.96,0.87,1.59,1.15
		c0.62,0.28,1.34,0.42,2.14,0.42c0.86,0,1.61-0.14,2.25-0.43c0.64-0.28,1.17-0.67,1.59-1.16c0.42-0.49,0.73-1.07,0.94-1.73
		c0.21-0.66,0.31-1.38,0.31-2.14v-10.05c0-0.14,0.06-0.27,0.16-0.38c0.11-0.1,0.25-0.16,0.41-0.16h1.17c0.15,0,0.3,0.05,0.43,0.15
		c0.13,0.1,0.19,0.23,0.19,0.39v10.37c0,1.09-0.19,2.1-0.58,3.01c-0.39,0.91-0.92,1.69-1.6,2.34c-0.68,0.65-1.47,1.16-2.37,1.52
		c-0.9,0.36-1.86,0.55-2.88,0.55s-1.98-0.19-2.88-0.58c-0.9-0.39-1.69-0.92-2.36-1.6s-1.21-1.46-1.6-2.36
		c-0.39-0.9-0.58-1.86-0.58-2.88v-10.37c0-0.12,0.05-0.24,0.14-0.36c0.09-0.12,0.22-0.18,0.37-0.18h1.3c0.12,0,0.25,0.05,0.38,0.16
		c0.13,0.1,0.2,0.23,0.2,0.38V418.41z"/>
	<path class="st1" d="M378.01,409.35c0.09,0.07,0.16,0.14,0.22,0.23c0.06,0.09,0.08,0.17,0.08,0.26c0,0.11-0.03,0.21-0.1,0.29
		l-0.64,1.07c-0.14,0.19-0.28,0.29-0.42,0.29c-0.06,0-0.12-0.02-0.19-0.04s-0.15-0.08-0.24-0.14c-0.58-0.41-1.2-0.73-1.84-0.95
		c-0.64-0.22-1.32-0.35-2.03-0.39c-1.04,0-2.01,0.19-2.89,0.56c-0.88,0.38-1.64,0.88-2.29,1.52c-0.64,0.64-1.15,1.37-1.51,2.21
		c-0.36,0.84-0.55,1.72-0.55,2.65c0,0.99,0.19,1.9,0.56,2.74c0.37,0.84,0.87,1.56,1.5,2.17c0.63,0.61,1.36,1.08,2.19,1.42
		c0.83,0.34,1.7,0.51,2.62,0.51c0.33,0,0.66-0.02,1-0.07c0.33-0.05,0.67-0.13,1.01-0.25c0.34-0.12,0.7-0.27,1.07-0.45
		c0.37-0.18,0.77-0.41,1.19-0.67c0.15-0.09,0.28-0.13,0.38-0.13c0.15,0,0.28,0.1,0.4,0.3l0.69,1.14c0.06,0.11,0.08,0.2,0.08,0.29
		c0,0.19-0.1,0.35-0.29,0.46c-0.76,0.55-1.6,0.98-2.51,1.29c-0.92,0.31-1.9,0.47-2.96,0.47c-0.86,0-1.68-0.11-2.47-0.33
		c-0.79-0.22-1.53-0.53-2.21-0.94s-1.31-0.89-1.87-1.45c-0.56-0.56-1.05-1.19-1.45-1.87c-0.4-0.68-0.71-1.42-0.93-2.21
		c-0.22-0.79-0.33-1.61-0.33-2.47c0-0.85,0.11-1.67,0.33-2.46c0.22-0.79,0.53-1.53,0.93-2.22c0.41-0.69,0.89-1.32,1.45-1.88
		c0.56-0.57,1.19-1.05,1.88-1.45c0.69-0.4,1.43-0.71,2.22-0.93c0.79-0.22,1.61-0.33,2.47-0.33c1.01,0,1.97,0.15,2.88,0.45
		C376.34,408.33,377.2,408.77,378.01,409.35z"/>
	<path class="st1" d="M382.73,425.41c-0.06,0.14-0.14,0.25-0.24,0.33c-0.11,0.08-0.24,0.12-0.4,0.12h-1.29
		c-0.37,0-0.56-0.14-0.56-0.43c0-0.06,0-0.1,0.01-0.14c0-0.04,0.01-0.07,0.02-0.1c0.01-0.03,0.02-0.06,0.03-0.09l7.01-16.83
		c0.02-0.04,0.04-0.08,0.06-0.14c0.03-0.05,0.06-0.1,0.1-0.15c0.04-0.04,0.1-0.08,0.18-0.11c0.08-0.03,0.18-0.05,0.31-0.05h0.8
		c0.12,0,0.22,0.02,0.3,0.05c0.08,0.03,0.14,0.07,0.18,0.11c0.04,0.05,0.07,0.09,0.1,0.15c0.02,0.05,0.04,0.1,0.06,0.14l6.95,16.83
		c0.01,0.04,0.02,0.08,0.02,0.12c0.01,0.04,0.02,0.08,0.02,0.11c0.01,0.04,0.01,0.07,0.01,0.09c0,0.28-0.19,0.43-0.56,0.43h-1.29
		c-0.16,0-0.3-0.04-0.4-0.12c-0.1-0.08-0.19-0.19-0.24-0.33l-1.34-3.34h-8.53c-0.28,0.72-0.54,1.37-0.78,1.96
		C383.02,424.61,382.84,425.07,382.73,425.41z M385,419.72h6.62l-3.28-8.31L385,419.72z"/>
	<path class="st1" d="M408.48,407.83c0.15,0,0.28,0.05,0.4,0.13c0.12,0.09,0.18,0.22,0.2,0.4v1.23c0,0.16-0.05,0.3-0.14,0.42
		c-0.1,0.12-0.25,0.18-0.45,0.18h-5.05v15.12c0,0.15-0.05,0.28-0.14,0.39s-0.24,0.17-0.41,0.17h-1.23c-0.15,0-0.27-0.05-0.39-0.16
		c-0.11-0.1-0.17-0.24-0.17-0.4v-15.12h-5.08c-0.16,0-0.29-0.05-0.4-0.15c-0.11-0.1-0.16-0.25-0.16-0.45v-1.23
		c0-0.16,0.05-0.29,0.16-0.39c0.1-0.1,0.24-0.15,0.4-0.15H408.48z"/>
	<path class="st1" d="M411.81,408.36c0-0.14,0.05-0.27,0.14-0.38c0.09-0.1,0.23-0.16,0.4-0.16h1.26c0.15,0,0.28,0.05,0.39,0.15
		s0.17,0.23,0.17,0.39v16.97c0,0.36-0.19,0.53-0.56,0.53h-1.26c-0.36,0-0.54-0.18-0.54-0.53V408.36z"/>
	<path class="st1" d="M426.79,407.58c0.85,0,1.67,0.11,2.46,0.33c0.79,0.22,1.53,0.53,2.21,0.94s1.31,0.89,1.88,1.45
		c0.57,0.56,1.05,1.19,1.45,1.88c0.4,0.69,0.71,1.44,0.93,2.23c0.22,0.79,0.33,1.62,0.33,2.48c0,0.85-0.11,1.67-0.33,2.46
		c-0.22,0.79-0.53,1.53-0.94,2.21s-0.89,1.31-1.45,1.87c-0.56,0.56-1.19,1.05-1.88,1.45c-0.69,0.4-1.43,0.71-2.22,0.93
		c-0.79,0.22-1.62,0.33-2.48,0.33s-1.68-0.11-2.47-0.33c-0.79-0.22-1.53-0.53-2.21-0.94c-0.69-0.41-1.31-0.89-1.87-1.45
		c-0.56-0.56-1.04-1.19-1.45-1.87c-0.4-0.68-0.71-1.42-0.93-2.21c-0.22-0.79-0.33-1.61-0.33-2.47c0-0.85,0.11-1.67,0.33-2.46
		c0.22-0.79,0.53-1.53,0.94-2.22c0.41-0.69,0.89-1.32,1.45-1.88c0.56-0.57,1.19-1.05,1.88-1.45c0.69-0.4,1.43-0.71,2.22-0.93
		C425.11,407.7,425.93,407.58,426.79,407.58z M419.84,416.83c0,0.64,0.08,1.25,0.25,1.84s0.4,1.14,0.7,1.65
		c0.3,0.51,0.66,0.98,1.08,1.4s0.89,0.78,1.4,1.08c0.51,0.3,1.06,0.53,1.65,0.7s1.2,0.25,1.84,0.25c0.63,0,1.24-0.08,1.83-0.25
		s1.14-0.4,1.65-0.7c0.51-0.3,0.98-0.66,1.4-1.08s0.78-0.89,1.08-1.4c0.3-0.51,0.53-1.06,0.7-1.65s0.25-1.2,0.25-1.84
		c0-0.95-0.18-1.85-0.55-2.69c-0.37-0.84-0.86-1.57-1.48-2.19s-1.35-1.12-2.19-1.48c-0.84-0.36-1.74-0.55-2.69-0.55
		c-0.64,0-1.25,0.08-1.84,0.25c-0.59,0.17-1.14,0.4-1.65,0.7c-0.51,0.3-0.98,0.66-1.4,1.08s-0.78,0.89-1.08,1.4
		c-0.3,0.51-0.53,1.06-0.7,1.65C419.93,415.58,419.84,416.19,419.84,416.83z"/>
	<path class="st1" d="M452.82,425.86c-0.18,0-0.33-0.09-0.46-0.27l-10.6-14.21v13.94c0,0.36-0.19,0.53-0.56,0.53h-1.23
		c-0.36,0-0.54-0.18-0.54-0.53v-16.94c0-0.16,0.05-0.3,0.15-0.4s0.23-0.16,0.39-0.16h1.63c0.21,0,0.38,0.09,0.51,0.27l10.33,13.74
		v-13.55c0.05-0.3,0.23-0.45,0.54-0.45h1.23c0.15,0,0.28,0.05,0.41,0.15c0.13,0.1,0.19,0.23,0.19,0.39v16.97
		c0,0.36-0.2,0.53-0.6,0.53H452.82z"/>
</g>
</svg>
